<svg width="80" height="32" viewBox="0 0 80 32" fill="none" xmlns="http://www.w3.org/2000/svg">
<path d="M62.0611 17.6659L61.9693 14.4534V14.1168L61.8469 13.7497L61.9387 13.3213C61.9591 13.2398 61.9795 13.1684 61.9999 13.1072C62.0407 13.0256 62.0611 12.944 62.0611 12.8624L62.0305 12.4341L62.0917 11.5162L62.0611 11.0879L62.1223 10.7513L62.0305 10.1394L62.0917 9.55808L61.9999 9.22153C61.9999 9.05835 62.0407 8.83399 62.1223 8.54843C62.2242 8.24247 62.265 7.95691 62.2446 7.69175L62.1529 7.17162C62.1529 7.06964 62.1631 6.98805 62.1835 6.92686C62.2242 6.84527 62.2548 6.71269 62.2752 6.52911C62.316 6.34554 62.3364 6.10077 62.3364 5.79482C62.3364 5.46846 62.3262 5.1829 62.3058 4.93814C62.2854 4.67298 62.2854 4.5098 62.3058 4.44861C62.3466 4.38742 62.367 4.33642 62.367 4.29563L62.3364 3.62253L62.3976 3.04121C62.4588 2.91883 62.469 2.76585 62.4282 2.58227C62.4078 2.3987 62.4078 2.22532 62.4282 2.06215C62.3262 1.98056 62.214 1.96016 62.0917 2.00096C61.9897 2.04175 61.8571 2.03155 61.6939 1.97036C61.5511 1.88877 61.4594 1.75619 61.4186 1.57262C61.3778 1.36865 61.4492 1.20547 61.6327 1.08309C61.8367 0.940307 61.9897 0.879115 62.0917 0.899512C62.1936 0.919909 62.2956 0.919909 62.3976 0.899512C62.4996 0.858718 62.5914 0.807725 62.673 0.746534C62.8769 0.624151 63.1217 0.593556 63.4073 0.654747C63.6928 0.695541 64.009 0.613953 64.3557 0.409982C64.4577 0.389585 64.5291 0.399783 64.5699 0.440578C64.6107 0.460975 64.6617 0.471173 64.7229 0.471173C64.7841 0.450776 64.8555 0.409982 64.937 0.348791C65.0186 0.267202 65.1104 0.206011 65.2124 0.165217C65.3348 0.104025 65.4674 0.0836281 65.6102 0.104025C65.7733 0.104025 65.9977 0.0938267 66.2833 0.0734296C66.5892 0.0530325 66.8238 0.0326354 66.9869 0.0122383C67.1501 -0.0285559 67.2929 0.0326354 67.4153 0.195812C67.5377 0.70574 67.3643 1.19527 66.8952 1.6644C66.5892 1.74599 66.3444 1.84798 66.1609 1.97036C65.5082 2.4191 65.2634 2.76585 65.4266 3.01061C65.4674 3.0718 65.498 3.14319 65.5184 3.22478C65.4572 3.42875 65.4368 3.57153 65.4572 3.65312C65.498 3.71431 65.4776 3.7857 65.396 3.86729C65.5796 4.31603 65.6407 4.69337 65.5796 4.99933C65.5388 5.28489 65.5082 5.52966 65.4878 5.73363L65.5184 6.68209C65.5388 6.76368 65.5796 6.89626 65.6407 7.07984L65.6102 7.56937C65.7121 7.87532 65.7631 8.0691 65.7631 8.15068C65.7631 8.23227 65.7325 8.35465 65.6713 8.51783C65.6102 8.68101 65.5592 8.85438 65.5184 9.03796C65.4776 9.20113 65.4572 9.40511 65.4572 9.64987C65.4572 9.89464 65.447 10.1598 65.4266 10.4454L65.3654 11.0573L65.549 13.1072C65.4878 14.0454 65.4368 14.5962 65.396 14.7593C65.4572 14.9225 65.4878 15.0959 65.4878 15.2795C65.4878 15.463 65.4674 15.718 65.4266 16.0444C65.4062 16.3707 65.447 16.6461 65.549 16.8704C65.447 17.1152 65.447 17.5741 65.549 18.2473C65.5694 18.39 65.6509 18.5022 65.7937 18.5838C65.8753 18.6042 65.9263 18.645 65.9467 18.7062C65.9875 18.7674 66.0691 18.7776 66.1915 18.7368C66.3138 18.7572 66.3648 18.7062 66.3444 18.5838C66.3444 18.4614 66.3954 18.39 66.4974 18.3696C66.5586 18.3288 66.5994 18.2982 66.6198 18.2778C66.6606 18.2371 66.732 18.2269 66.834 18.2473C66.936 18.2065 67.0175 18.1351 67.0787 18.0331C67.1603 17.9311 67.2929 17.8801 67.4765 17.8801C67.5989 17.6965 67.6601 17.5945 67.6601 17.5741C67.8436 17.4518 67.9558 17.36 67.9966 17.2988C68.0578 17.2172 68.119 17.156 68.1802 17.1152C68.2414 17.054 68.3128 17.003 68.3943 16.9622C68.4759 16.901 68.5575 16.8399 68.6391 16.7787C68.7819 16.5747 68.8635 16.4727 68.8839 16.4727C68.9247 16.4727 68.9859 16.4421 69.0674 16.3809C69.149 16.2993 69.2306 16.1973 69.3122 16.075C69.4142 15.9322 69.5162 15.8098 69.6182 15.7078C69.7202 15.6466 69.8323 15.5854 69.9547 15.5242C70.0975 15.463 70.2199 15.3713 70.3219 15.2489C70.4238 15.1265 70.5258 15.0245 70.6278 14.9429C70.7502 14.8613 70.893 14.7593 71.0562 14.637C71.2193 14.5146 71.3417 14.3616 71.4233 14.178C71.3621 14.0149 71.2499 13.9537 71.0868 13.9945C70.9236 14.0352 70.7808 14.0352 70.6584 13.9945C70.536 13.9333 70.434 13.8619 70.3525 13.7803C70.2709 13.6783 70.1791 13.5865 70.0771 13.5049C70.1383 13.3621 70.1485 13.2602 70.1077 13.199C70.0669 13.1378 70.0669 13.0766 70.1077 13.0154C70.1893 12.791 70.4748 12.6176 70.9644 12.4953C71.0664 12.5361 71.1479 12.6075 71.2091 12.7094C71.2703 12.8114 71.3417 12.9032 71.4233 12.9848C71.7293 13.1072 72.1576 13.1684 72.7083 13.1684C72.8511 13.2092 72.9939 13.2296 73.1367 13.2296C73.259 13.3519 73.3814 13.4131 73.5038 13.4131L74.1769 13.5355L74.6664 13.5049C74.8908 13.4845 75.0642 13.4845 75.1866 13.5049C75.3293 13.5253 75.4517 13.6375 75.5537 13.8415C75.6557 14.0454 75.6965 14.229 75.6761 14.3922C75.6149 14.5146 75.5129 14.6064 75.3701 14.6676C75.2477 14.7287 75.156 14.7593 75.0948 14.7593C75.054 14.7389 74.9418 14.7491 74.7582 14.7899C74.595 14.8307 74.4625 14.8205 74.3605 14.7593C74.2585 14.6982 74.1565 14.6676 74.0545 14.6676C73.9933 14.6268 73.9219 14.637 73.8403 14.6982C73.7792 14.7389 73.6976 14.7695 73.5956 14.7899C73.4936 14.7899 73.4324 14.7695 73.412 14.7287C73.3916 14.6676 73.2794 14.6574 73.0755 14.6982C72.6879 14.7593 72.382 15.0653 72.1576 15.616C72.0352 15.6364 71.923 15.6772 71.821 15.7384C71.7395 15.7792 71.6477 15.82 71.5457 15.8608C71.4029 16.0648 71.2295 16.1769 71.0256 16.1973C70.9236 16.3197 70.8012 16.4319 70.6584 16.5339C70.5156 16.6359 70.4238 16.7889 70.3831 16.9928C70.0159 17.1764 69.71 17.4212 69.4652 17.7271C69.4652 17.8699 69.5162 17.9821 69.6182 18.0637C69.7405 18.1453 69.8425 18.3084 69.9241 18.5532C70.0261 18.7776 70.1587 19.0325 70.3219 19.3181C70.3627 19.4813 70.4238 19.6139 70.5054 19.7158C70.587 19.8178 70.6278 19.9606 70.6278 20.1442C70.7298 20.3074 70.8114 20.4909 70.8726 20.6949C70.9338 20.8785 71.0052 21.0519 71.0868 21.215C71.1887 21.3578 71.2295 21.5006 71.2091 21.6434C71.2499 21.8065 71.3111 21.9493 71.3927 22.0717C71.4947 22.1737 71.5457 22.3267 71.5457 22.5306C71.6681 22.5918 71.7497 22.704 71.7904 22.8672C71.8312 23.01 71.9026 23.1324 72.0046 23.2343C72.0658 23.4791 72.127 23.6525 72.1882 23.7545C72.2698 23.8361 72.3514 23.9788 72.433 24.1828C72.5349 24.3868 72.5757 24.5092 72.5553 24.55C72.5553 24.5704 72.5655 24.6111 72.5859 24.6723C72.6267 24.7131 72.6675 24.7539 72.7083 24.7947C72.7491 24.8355 72.7797 24.8865 72.8001 24.9477C72.8409 25.0089 72.8511 25.0701 72.8307 25.1313C72.8103 25.1925 72.8103 25.2639 72.8307 25.3454C72.8715 25.4066 72.9123 25.4882 72.9531 25.5902C73.0143 25.6718 73.0755 25.8146 73.1367 26.0185C73.2182 26.2021 73.2794 26.3245 73.3202 26.3857C73.4834 26.6101 73.5752 26.8038 73.5956 26.967C73.616 27.1302 73.6874 27.273 73.8098 27.3954C73.9321 27.5177 74.0341 27.6911 74.1157 27.9155C74.2177 28.1195 74.2789 28.2214 74.2993 28.2214C74.3401 28.2214 74.3707 28.3234 74.3911 28.5274C74.4319 28.711 74.6766 29.0271 75.1254 29.4759C75.2885 29.7206 75.4211 29.8838 75.5231 29.9654C75.6251 30.0674 75.6761 30.1388 75.6761 30.1796C75.6965 30.2204 75.7475 30.2611 75.8291 30.3019C76.0738 30.3427 76.237 30.3835 76.3186 30.4243C76.4002 30.4651 76.4818 30.4855 76.5634 30.4855C76.8081 30.3835 76.9713 30.3223 77.0529 30.3019C77.1345 30.2815 77.2161 30.2204 77.2976 30.1184C77.3996 30.0368 77.5016 29.9654 77.6036 29.9042C77.7464 29.7818 77.8688 29.6084 77.9707 29.3841C78.0931 29.1597 78.1849 29.0067 78.2461 28.9251C78.3073 28.8435 78.3379 28.7722 78.3379 28.711C78.4195 28.4866 78.3685 28.2622 78.1849 28.0379C78.0217 27.8135 77.8994 27.6911 77.8178 27.6707C77.7566 27.6299 77.6546 27.5993 77.5118 27.5789C77.3894 27.5585 77.2772 27.5075 77.1753 27.4259C76.9509 27.4667 76.7775 27.5789 76.6551 27.7625C76.5532 27.9257 76.4512 28.1195 76.3492 28.3438C76.2268 28.303 76.135 28.3132 76.0738 28.3744C76.033 28.4356 75.9718 28.456 75.8903 28.4356C75.8087 28.4152 75.7475 28.3744 75.7067 28.3132C75.6863 28.252 75.6149 28.1602 75.4925 28.0379C75.3701 27.9155 75.3293 27.6911 75.3701 27.3648C75.4109 27.0384 75.5333 26.7936 75.7373 26.6305C75.9616 26.4469 76.084 26.2735 76.1044 26.1103C76.3492 26.1715 76.5328 26.1613 76.6551 26.0797C76.7979 25.9982 76.9101 25.9574 76.9917 25.9574C77.6444 25.9574 78.0319 26.0593 78.1543 26.2633C78.2767 26.4673 78.4195 26.6611 78.5827 26.8446C78.7662 27.0282 78.8988 27.171 78.9804 27.273C79.0824 27.375 79.2048 27.4667 79.3475 27.5483C79.4699 27.8339 79.5413 28.1296 79.5617 28.4356C79.5821 28.7212 79.5719 28.9149 79.5311 29.0169C79.5107 29.1189 79.4699 29.2515 79.4087 29.4147C79.3475 29.5778 79.3068 29.7206 79.2864 29.843C79.266 29.9654 79.215 30.0674 79.1334 30.149C79.0518 30.2509 78.9498 30.3631 78.8274 30.4855C78.705 30.6079 78.6031 30.7099 78.5215 30.7915C78.4603 30.8935 78.4195 30.9648 78.3991 31.0056C78.3991 31.0668 78.3787 31.1178 78.3379 31.1586C78.2359 31.1994 78.1339 31.23 78.0319 31.2504C77.93 31.2912 77.8076 31.3422 77.6648 31.4034C77.522 31.485 77.3792 31.587 77.2365 31.7093C77.0937 31.8317 76.9713 31.9031 76.8693 31.9235C76.7673 31.9643 76.6653 31.9745 76.5634 31.9541C76.4818 31.9337 76.39 31.9235 76.288 31.9235C76.2064 31.9439 76.1248 31.9643 76.0432 31.9847C75.9616 32.0051 75.8801 32.0051 75.7985 31.9847C75.7169 31.9643 75.6251 31.9031 75.5231 31.8011C75.4415 31.7195 75.3395 31.6481 75.2171 31.587C74.8908 31.587 74.646 31.5054 74.4829 31.3422C74.3401 31.1994 74.1361 31.1076 73.8709 31.0668C73.8302 30.9648 73.7894 30.8731 73.7486 30.7915C73.7078 30.7303 73.667 30.6589 73.6262 30.5773C73.5242 30.5365 73.4528 30.4753 73.412 30.3937C73.3712 30.3121 73.31 30.2407 73.2284 30.1796C73.0653 30.1184 72.9735 30.0572 72.9531 29.996C72.9531 29.9552 72.9327 29.9246 72.8919 29.9042C72.7491 29.6594 72.6165 29.5167 72.4941 29.4759C72.2698 29.1903 72.1066 28.9659 72.0046 28.8028C71.9026 28.6396 71.7802 28.5376 71.6375 28.4968C71.5355 28.0889 71.3723 27.8339 71.1479 27.7319C71.1683 27.5075 71.0562 27.324 70.8114 27.1812C70.7706 26.8956 70.6788 26.5999 70.536 26.2939C70.3729 26.1103 70.2913 26.0083 70.2913 25.988C70.2913 25.9676 70.2505 25.9064 70.1689 25.8044C70.1077 25.7024 70.0465 25.5494 69.9853 25.3454C69.9445 25.1415 69.8425 24.9273 69.6794 24.7029C69.5978 24.5398 69.557 24.4378 69.557 24.397C69.557 24.3562 69.5468 24.3154 69.5264 24.2746C69.4244 24.193 69.3734 24.1318 69.3734 24.091C69.3734 24.0502 69.3428 23.9788 69.2816 23.8769L69.0674 23.3567C68.9655 23.1324 68.9145 22.9794 68.9145 22.8978C68.9349 22.8162 68.8839 22.755 68.7615 22.7142C68.7003 22.4083 68.6697 22.2145 68.6697 22.1329C68.6901 22.0513 68.6799 21.9493 68.6391 21.8269C68.5371 21.7046 68.4963 21.623 68.5167 21.5822C68.5371 21.5414 68.5065 21.4598 68.4249 21.3374C68.3637 21.1946 68.3128 21.0926 68.272 21.0315C68.2516 20.9703 68.2414 20.9091 68.2414 20.8479C68.2414 20.7867 68.221 20.7153 68.1802 20.6337C68.1598 20.5317 68.1088 20.4399 68.0272 20.3584C67.966 20.2564 67.9354 20.1544 67.9354 20.0524C67.6091 19.726 67.3031 19.6445 67.0175 19.8076C66.732 19.9708 66.5892 20.1442 66.5892 20.3278C66.5892 20.4909 66.5586 20.6337 66.4974 20.7561C66.4566 20.8785 66.4362 20.9601 66.4362 21.0009C66.4566 21.0213 66.426 21.0926 66.3444 21.215C66.2629 21.3374 66.2221 21.419 66.2221 21.4598C66.2629 21.5822 66.1711 21.7556 65.9467 21.9799C65.9671 22.1431 65.9365 22.2859 65.8549 22.4083C65.7733 22.5102 65.7121 22.6428 65.6713 22.806L65.7325 23.3567C65.7325 23.5811 65.7223 23.8157 65.7019 24.0604C65.6815 24.3052 65.6917 24.5296 65.7325 24.7335C65.7733 24.9171 65.8243 25.0701 65.8855 25.1925C65.9467 25.3148 65.9569 25.4984 65.9161 25.7432C65.7733 26.1307 65.7121 26.4163 65.7325 26.5999C65.7529 26.763 65.7733 26.9364 65.7937 27.12C66.0385 27.2628 66.2629 27.2628 66.4668 27.12C66.5484 27.1812 66.6198 27.222 66.681 27.2424C66.7626 27.2628 66.834 27.3036 66.8952 27.3648C66.9564 27.4056 67.0277 27.4463 67.1093 27.4871C67.1909 27.5279 67.2521 27.5789 67.2929 27.6401C67.2725 27.8237 67.2521 27.9767 67.2317 28.0991C67.2317 28.2214 67.1603 28.3336 67.0175 28.4356C66.8544 28.4764 66.7626 28.5172 66.7422 28.558C66.7218 28.5784 66.681 28.5988 66.6198 28.6192C66.5586 28.6396 66.4668 28.6396 66.3444 28.6192C66.2425 28.5784 66.0997 28.5682 65.9161 28.5886C65.7529 28.609 65.5796 28.66 65.396 28.7416C65.2328 28.8232 65.0798 28.8333 64.937 28.7722C64.8555 28.7722 64.7943 28.7926 64.7535 28.8333C64.7331 28.8741 64.6923 28.9149 64.6311 28.9557C64.5495 28.9557 64.4883 28.9455 64.4475 28.9251C64.4067 28.9047 64.3251 28.9149 64.2028 28.9557C64.1008 29.0169 64.0294 29.0373 63.9886 29.0169C63.9478 28.9965 63.8866 28.9863 63.805 28.9863C63.7234 28.9863 63.6112 29.0067 63.4685 29.0475C63.3257 29.0883 63.1727 29.0781 63.0095 29.0169C62.9075 29.0577 62.8056 29.1189 62.7036 29.2005C62.6016 29.2821 62.3772 29.3535 62.0305 29.4147C61.6837 29.4759 61.3064 29.3841 60.8984 29.1393C60.9392 28.8537 60.98 28.6294 61.0208 28.4662C61.1228 28.405 61.2248 28.354 61.3268 28.3132C61.4288 28.2724 61.5205 28.2112 61.6021 28.1296C61.7245 28.1296 61.7959 28.1195 61.8163 28.0991C61.8571 28.0787 61.9285 28.0889 62.0305 28.1296C62.1733 28.0277 62.3364 27.9767 62.52 27.9767C62.7036 27.9563 62.8464 27.8645 62.9483 27.7013C62.9075 27.4769 62.8464 27.2526 62.7648 27.0282C62.6832 26.7834 62.6628 26.4979 62.7036 26.1715C62.622 25.5188 62.571 24.8355 62.5506 24.1216C62.5302 23.3873 62.4894 22.908 62.4282 22.6836C62.5098 22.4389 62.5404 22.2757 62.52 22.1941C62.4996 22.0921 62.4894 21.9187 62.4894 21.674V21.3374L62.367 20.7255C62.3466 20.6643 62.3466 20.5929 62.367 20.5113C62.4078 20.4297 62.4282 20.338 62.4282 20.236C62.4282 20.1136 62.3976 19.9606 62.3364 19.777C62.2956 19.5935 62.2854 19.4813 62.3058 19.4405C62.3262 19.3997 62.2854 19.1957 62.1835 18.8286C62.1019 18.4614 62.0611 18.0739 62.0611 17.6659Z" fill="white"/>
<path d="M55.6959 24.8252L56.4914 24.6722L57.5317 24.3357L58.0212 23.938C58.062 23.938 58.1232 23.9584 58.2048 23.9991C58.2864 24.0195 58.3985 24.0195 58.5413 23.9991C58.7045 23.9584 58.8473 24.0093 58.9697 24.1521C59.1124 24.2745 59.1532 24.3867 59.092 24.4887C59.0512 24.5703 59.0512 24.6722 59.092 24.7946C58.9289 25.1006 58.6943 25.325 58.3883 25.4677C58.3476 25.5493 58.2762 25.6003 58.1742 25.6207C58.0926 25.6411 57.9906 25.6819 57.8682 25.7431C57.7662 25.8043 57.6337 25.8961 57.4705 26.0185C57.3277 26.1408 57.1237 26.2326 56.8586 26.2938C56.5934 26.355 56.3486 26.4468 56.1243 26.5692C56.0835 26.508 56.0223 26.4978 55.9407 26.5386C55.8795 26.559 55.8183 26.5692 55.7571 26.5692H55.2982L54.8393 26.6916C54.4517 26.61 54.156 26.5998 53.952 26.661C53.7684 26.7018 53.5746 26.6814 53.3707 26.5998C53.1871 26.4978 53.0953 26.4366 53.0953 26.4162C53.1157 26.3754 53.1157 26.3448 53.0953 26.3244C52.9321 26.2632 52.82 26.1918 52.7588 26.1102C52.718 26.0083 52.6772 25.9267 52.6364 25.8655C52.4936 25.7839 52.3508 25.7431 52.208 25.7431C52.0653 25.7227 51.9735 25.6105 51.9327 25.4065C51.6675 25.3658 51.484 25.2944 51.382 25.1924C51.2188 25.0904 51.1168 24.917 51.076 24.6722C51.0352 24.4275 50.9128 24.2541 50.7089 24.1521C50.5253 23.8666 50.4131 23.632 50.3723 23.4484C50.3315 23.2445 50.2295 23.0711 50.0664 22.9283C50.0868 22.6835 49.995 22.296 49.791 21.7657C49.6074 21.2353 49.6074 20.7968 49.791 20.45C49.791 20.3481 49.7706 20.2155 49.7298 20.0523C49.8318 19.8483 49.8828 19.6342 49.8828 19.4098C49.9032 19.165 49.9236 18.9611 49.944 18.7979C49.9848 18.6347 50.0154 18.5225 50.0358 18.4613C50.1377 18.2778 50.2193 18.0534 50.2805 17.7882C50.3417 17.5027 50.4131 17.2783 50.4947 17.1151C50.5763 16.9315 50.6273 16.7786 50.6477 16.6562C50.7293 16.6154 50.8007 16.5236 50.8618 16.3808C50.9434 16.2176 51.0556 16.0545 51.1984 15.8913C51.3412 15.7077 51.433 15.5241 51.4738 15.3406C51.5757 15.3202 51.6471 15.2692 51.6879 15.1876C51.7491 15.106 51.8103 15.0244 51.8715 14.9428C51.9735 14.9224 52.0449 14.8816 52.0857 14.8204C52.1469 14.7389 52.259 14.6675 52.4222 14.6063C52.5854 14.5247 52.7078 14.4329 52.7894 14.3309C52.8913 14.2289 53.0239 14.1473 53.1871 14.0862C53.3503 14.0046 53.4421 13.9434 53.4625 13.9026C53.5033 13.8618 53.5441 13.8414 53.5848 13.8414L53.9214 13.7496C53.9826 13.7496 54.0438 13.7598 54.105 13.7802C54.3701 13.821 54.6965 13.6782 55.084 13.3519C55.3492 13.3723 55.5838 13.4028 55.7877 13.4436C55.9917 13.464 56.1651 13.3723 56.3078 13.1683C56.4098 13.2091 56.471 13.2703 56.4914 13.3519C56.5322 13.413 56.6036 13.464 56.7056 13.5048C56.9911 13.464 57.2155 13.515 57.3787 13.6578C57.5419 13.7802 57.6948 13.9332 57.8376 14.1167C57.8988 14.0556 57.96 13.974 58.0212 13.872C58.0824 13.77 58.1742 13.6374 58.2966 13.4742C58.4189 13.2907 58.5617 13.1683 58.7249 13.1071C58.8881 13.0255 59.0207 13.0255 59.1226 13.1071C59.2246 13.1887 59.3062 13.2805 59.3674 13.3825C59.449 13.464 59.4592 13.5252 59.398 13.566C59.3572 13.6068 59.3572 13.6782 59.398 13.7802L59.4592 14.1473C59.4388 14.1881 59.4082 14.3105 59.3674 14.5145C59.347 14.7185 59.3266 14.8612 59.3062 14.9428C59.2858 15.0244 59.2858 15.0958 59.3062 15.157C59.3266 15.2182 59.296 15.4324 59.2144 15.7995C59.1532 16.1463 59.143 16.5338 59.1838 16.9621C59.2246 17.3905 59.2348 17.6556 59.2144 17.7576C59.194 17.8596 59.1736 17.982 59.1532 18.1248C59.1328 18.2472 59.1022 18.3389 59.0614 18.4001C58.9595 18.4817 58.8983 18.5429 58.8779 18.5837C58.8779 18.6245 58.8575 18.6653 58.8167 18.7061L58.4189 18.9509C58.113 19.0324 57.8988 18.9509 57.7764 18.7061C57.6541 18.4613 57.5623 18.2166 57.5011 17.9718C57.6439 17.5639 57.6541 17.0539 57.5317 16.442V16.2278C57.5317 16.1055 57.4603 15.9525 57.3175 15.7689C57.1747 15.5853 57.1033 15.4834 57.1033 15.463C57.1237 15.4222 57.1237 15.3814 57.1033 15.3406C56.8994 15.2794 56.7158 15.208 56.5526 15.1264C56.3894 15.0448 56.2263 14.9632 56.0631 14.8816C55.9611 14.9224 55.8693 14.9326 55.7877 14.9122C55.7061 14.8918 55.6144 14.902 55.5124 14.9428C55.4308 14.9632 55.3798 15.004 55.3594 15.0652C55.339 15.1264 55.2982 15.1672 55.237 15.1876L54.8393 15.2794C54.5537 15.4018 54.4007 15.5241 54.3803 15.6465C54.3803 15.7689 54.3293 15.8811 54.2274 15.9831C54.207 16.0647 54.156 16.1055 54.0744 16.1055C53.9928 16.1055 53.9418 16.1463 53.9214 16.2278C53.8194 16.3298 53.748 16.4318 53.7072 16.5338C53.6868 16.6358 53.646 16.7582 53.5848 16.901C53.5237 17.0233 53.4829 17.1151 53.4625 17.1763C53.4421 17.2171 53.4217 17.2885 53.4013 17.3905C53.4013 17.4925 53.3809 17.5639 53.3401 17.6047C53.3197 17.6454 53.2993 17.7168 53.2789 17.8188C53.2585 17.9004 53.2279 17.9922 53.1871 18.0942C53.1667 18.1758 53.1565 18.2574 53.1565 18.3389C53.1565 18.4001 53.1259 18.4613 53.0647 18.5225C53.0035 18.5837 52.9423 18.7061 52.8811 18.8897C52.8404 19.0528 52.82 19.2772 52.82 19.5628C52.8404 19.8279 52.82 20.0625 52.7588 20.2665C52.6976 20.4704 52.6874 20.603 52.7282 20.6642C52.7894 20.7254 52.8404 20.7968 52.8811 20.8784C52.7588 21.4495 52.8404 22.0308 53.1259 22.6223C53.1871 22.7243 53.2789 22.7957 53.4013 22.8365C53.3605 23.1017 53.3911 23.2852 53.4931 23.3872C53.7174 23.632 53.8398 23.8156 53.8602 23.938C54.0234 24.0195 54.1662 24.1113 54.2885 24.2133C54.4313 24.3153 54.5639 24.4071 54.6863 24.4887C54.9922 24.5091 55.186 24.5703 55.2676 24.6722C55.3696 24.7742 55.5124 24.8252 55.6959 24.8252Z" fill="white"/>
<path d="M44.1318 12.2502C44.3561 12.3522 44.4683 12.4236 44.4683 12.4644C44.4683 12.4848 44.5091 12.5052 44.5907 12.5256C44.6927 12.5256 44.7539 12.5562 44.7743 12.6174C44.7947 12.6582 44.8355 12.699 44.8967 12.7398C44.9579 12.7806 45.0394 12.8214 45.1414 12.8621C45.2434 12.9029 45.3454 12.9743 45.4474 13.0763C45.5494 13.1783 45.7024 13.3007 45.9063 13.4435C46.1103 13.5862 46.406 13.8616 46.7936 14.2695C47.1811 14.6775 47.4157 15.0242 47.4973 15.3098C47.5789 15.5954 47.6299 15.7687 47.6503 15.8299C47.6911 15.8911 47.7013 15.9931 47.6809 16.1359C47.6809 16.2583 47.7115 16.5336 47.7726 16.962C47.8542 17.3903 47.8338 17.7677 47.7115 18.094L47.4667 18.8589C47.4463 18.9201 47.4361 18.9915 47.4361 19.0731C47.4361 19.1547 47.3953 19.2464 47.3137 19.3484C47.2321 19.4504 47.1913 19.5218 47.1913 19.5626C47.2117 19.6034 47.1811 19.685 47.0995 19.8074C47.0384 19.9093 46.9874 19.9603 46.9466 19.9603C46.8854 19.9807 46.7732 20.1541 46.61 20.4805C46.4672 20.8068 46.3143 21.0006 46.1511 21.0618C45.9879 21.1026 45.8553 21.1434 45.7533 21.1842C45.529 21.3473 45.3352 21.5411 45.172 21.7655C45.0089 21.9695 44.8355 22.1326 44.6519 22.255C44.4683 22.357 44.2848 22.4386 44.1012 22.4998C43.938 22.561 43.7952 22.6528 43.6728 22.7751C43.5505 22.7343 43.4383 22.7445 43.3363 22.8057C43.2547 22.8669 43.1731 22.9179 43.0915 22.9587C43.0099 22.9791 42.9386 22.9893 42.8774 22.9893C42.8366 22.9893 42.7652 23.0097 42.6632 23.0505C42.1125 23.2953 41.6331 23.3361 41.2252 23.1729C41.1436 23.1321 41.0314 23.1015 40.8887 23.0811C40.7663 23.0403 40.5623 22.9791 40.2767 22.8975C40.0116 22.7955 39.7974 22.663 39.6342 22.4998C39.4915 22.3162 39.3487 22.204 39.2059 22.1632C39.1243 21.9389 38.9917 21.7757 38.8082 21.6737C38.645 21.5513 38.4818 21.4085 38.3186 21.2454C38.1758 21.0414 38.1045 20.9292 38.1045 20.9088C38.1045 20.868 38.0841 20.8272 38.0433 20.7864C38.0025 20.7252 37.9311 20.6436 37.8291 20.5417C37.7475 20.4397 37.6557 20.3173 37.5537 20.1745C37.4722 20.0317 37.3498 19.889 37.1866 19.7462C37.0438 19.583 36.9826 19.3994 37.003 19.1954C37.0438 18.9711 37.0438 18.7569 37.003 18.5529C36.9622 18.349 36.9214 18.1654 36.8806 18.0022C36.8398 17.839 36.8296 17.6759 36.85 17.5127C36.8908 17.3495 36.9112 17.2373 36.9112 17.1761C36.9112 17.1149 36.9418 16.9824 37.003 16.7784C37.0846 16.5744 37.1458 16.4418 37.1866 16.3806C37.2274 16.3195 37.2682 16.2073 37.309 16.0441C37.3702 15.8605 37.411 15.7687 37.4314 15.7687C37.4722 15.7483 37.4925 15.7177 37.4925 15.6769C37.5129 15.6362 37.5333 15.575 37.5537 15.4934C37.5741 15.3914 37.6965 15.1976 37.9209 14.9121C38.1657 14.6061 38.339 14.4123 38.441 14.3307C38.5634 14.2492 38.6246 14.1472 38.6246 14.0248C38.849 13.882 38.9611 13.7902 38.9611 13.7494C38.9611 13.7086 39.0019 13.6576 39.0835 13.5964C39.1651 13.5149 39.2875 13.4333 39.4507 13.3517C39.6342 13.2701 39.777 13.1375 39.879 12.9539C40.0422 12.9335 40.1748 12.8825 40.2767 12.801C40.3991 12.699 40.5929 12.5664 40.8581 12.4032C41.1436 12.24 41.5006 12.1584 41.9289 12.1584C42.3776 12.1584 42.7244 12.1686 42.9691 12.189C43.2343 12.2094 43.4485 12.24 43.6117 12.2808C43.7952 12.3012 43.9686 12.291 44.1318 12.2502ZM45.4168 16.1665V15.6769C45.2536 15.5138 45.0904 15.269 44.9273 14.9427C44.8457 14.9019 44.7743 14.8611 44.7131 14.8203C44.6723 14.7795 44.6213 14.7387 44.5601 14.6979C44.5193 14.6571 44.4785 14.6061 44.4377 14.5449C44.4173 14.4837 44.3867 14.4327 44.3459 14.3919C44.2644 14.3715 44.1522 14.3409 44.0094 14.3001C43.8666 14.2593 43.7442 14.2492 43.6423 14.2695C43.5199 14.2695 43.3567 14.2186 43.1527 14.1166C42.9691 13.9942 42.7142 13.9636 42.3878 14.0248C42.0819 14.086 41.8677 14.1472 41.7453 14.2084C41.6433 14.2695 41.4904 14.2899 41.2864 14.2695C41.164 14.3919 41.0416 14.5347 40.9192 14.6979C40.7969 14.8611 40.7051 14.963 40.6439 15.0038C40.6031 15.0446 40.5419 15.1364 40.4603 15.2792C40.3991 15.422 40.3277 15.5342 40.2461 15.6158C40.1442 15.7177 40.1034 15.8299 40.1238 15.9523C40.1442 16.0543 40.1238 16.1665 40.0626 16.2889C39.7362 17.0232 39.7464 17.8798 40.0932 18.8589C40.1748 19.0833 40.2156 19.3178 40.2156 19.5626C40.3379 19.7054 40.4297 19.8584 40.4909 20.0215C40.5521 20.1643 40.6235 20.3173 40.7051 20.4805C40.7867 20.6436 40.8785 20.7762 40.9804 20.8782C41.0824 20.9802 41.1844 21.1026 41.2864 21.2454C41.572 21.3677 41.7963 21.4289 41.9595 21.4289C42.1227 21.4085 42.347 21.3473 42.6326 21.2454C42.8774 21.1026 43.0303 21.0414 43.0915 21.0618C43.1527 21.0618 43.2037 21.0516 43.2445 21.0312C43.2853 20.9904 43.3465 20.9292 43.4281 20.8476C43.5301 20.766 43.6117 20.7252 43.6728 20.7252C43.734 20.7252 43.8156 20.6946 43.9176 20.6334C44.0196 20.5519 44.1216 20.4397 44.2236 20.2969C44.3459 20.1541 44.4785 20.0623 44.6213 20.0215C44.6621 19.9603 44.6825 19.8991 44.6825 19.838C44.7029 19.7564 44.7233 19.685 44.7437 19.6238C44.9273 19.5218 45.0598 19.379 45.1414 19.1954C45.2434 19.0119 45.376 18.8385 45.5392 18.6753C45.5392 18.5733 45.5188 18.4612 45.478 18.3388C45.4576 18.2164 45.4678 18.0838 45.5086 17.941C45.5698 17.7779 45.5902 17.6861 45.5698 17.6657C45.5698 17.6249 45.5698 17.5229 45.5698 17.3597C45.5902 17.1761 45.6208 17.0436 45.6616 16.962C45.7227 16.8804 45.7329 16.7886 45.6922 16.6866C45.6718 16.5642 45.6208 16.4724 45.5392 16.4112C45.478 16.3501 45.4372 16.2685 45.4168 16.1665Z" fill="white"/>
<path d="M22.5919 29.9961L21.7659 30.3021C21.4599 30.3021 21.2763 30.0573 21.2151 29.5678C21.2763 29.527 21.3273 29.425 21.3681 29.2618C21.4089 29.0171 21.5313 28.9151 21.7353 28.9559C21.9596 28.9763 22.133 28.9253 22.2554 28.8029C22.3778 28.6805 22.4798 28.5989 22.5613 28.5581C22.9285 28.4562 23.2243 28.293 23.4486 28.0686C23.3874 27.8239 23.3568 27.6607 23.3568 27.5791C23.3772 27.4975 23.367 27.3445 23.3262 27.1202C23.2854 26.8754 23.2548 26.6918 23.2345 26.5694C23.2345 26.447 23.2345 26.2533 23.2345 25.9881C23.2345 25.7229 23.2141 25.4374 23.1733 25.1314C23.1325 24.8255 23.1019 24.6113 23.0815 24.4889C23.0611 24.3461 23.0611 24.234 23.0815 24.1524C23.1019 24.0708 23.1019 23.9688 23.0815 23.8464C23.0815 23.724 23.0713 23.4895 23.0509 23.1427C23.0305 22.7756 23.0101 22.439 22.9897 22.1331C22.9693 21.8067 22.9591 21.3784 22.9591 20.848C22.9795 20.3177 22.9795 19.9404 22.9591 19.716C22.9387 19.4712 22.9183 19.3081 22.8979 19.2265C22.8775 19.1245 22.8673 19.0327 22.8673 18.9511L22.9285 17.6661L22.8673 16.3505L22.8979 15.9833L22.7755 15.2796C22.7347 14.8513 22.7245 14.5147 22.7449 14.27C22.7653 14.0048 22.7551 13.6989 22.7143 13.3521C22.388 13.3317 22.0922 13.3725 21.8271 13.4745C21.5619 13.5561 21.2865 13.5255 21.001 13.3827C21.001 12.9136 21.052 12.5464 21.154 12.2813C21.5007 12.1793 21.8271 12.1181 22.133 12.0977C22.4594 12.0773 22.7143 12.0365 22.8979 11.9753C23.1019 11.9141 23.2141 11.8631 23.2345 11.8223C23.2548 11.7611 23.2956 11.7101 23.3568 11.6693C23.7036 11.6693 23.9687 11.6387 24.1523 11.5776C24.3359 11.496 24.5603 11.5674 24.8254 11.7917C25.009 11.8937 25.1314 11.9957 25.1926 12.0977C25.2945 12.3017 25.3353 12.4342 25.3149 12.4954C25.2945 12.5566 25.2945 12.6382 25.3149 12.7402C25.3353 12.8422 25.3557 12.9748 25.3761 13.1379C25.3965 13.3011 25.4271 13.4541 25.4679 13.5969C25.5087 13.7397 25.5189 13.8824 25.4985 14.0252C25.4985 14.168 25.5393 14.2904 25.6209 14.3924C26.09 14.5963 26.4878 14.4535 26.8141 13.964C26.9161 13.7804 26.9773 13.6887 26.9977 13.6887C27.0589 13.6887 27.1201 13.6479 27.1813 13.5663C27.2629 13.4643 27.3343 13.3827 27.3954 13.3215C27.477 13.2399 27.5892 13.1481 27.732 13.0461C27.8952 12.9442 28.0379 12.832 28.1603 12.7096C28.3439 12.7504 28.5071 12.7198 28.6499 12.6178C28.7926 12.4954 28.966 12.4138 29.17 12.373C29.3944 12.3119 29.6289 12.2915 29.8737 12.3119C30.1388 12.3323 30.3836 12.2915 30.608 12.1895L31.0057 12.3424C31.1281 12.3221 31.3117 12.3119 31.5564 12.3119C31.8216 12.3119 32.0154 12.3526 32.1378 12.4342C32.1785 12.5158 32.2397 12.5974 32.3213 12.679C32.4233 12.7606 32.5049 12.8626 32.5661 12.985C32.6477 13.1073 32.7089 13.1787 32.7497 13.1991C32.7905 13.2195 32.8312 13.2603 32.872 13.3215C32.9128 13.3827 32.9536 13.4745 32.9944 13.5969C33.0556 13.6989 33.127 13.8212 33.2086 13.964C33.3514 14.1068 33.4228 14.219 33.4228 14.3006C33.4432 14.3618 33.4738 14.4739 33.5145 14.6371C33.5757 14.7799 33.6471 14.9533 33.7287 15.1572C33.8103 15.3612 33.8511 15.5142 33.8511 15.6162C33.8511 15.7182 33.8613 15.81 33.8817 15.8915C33.9021 15.9731 33.9225 16.0445 33.9429 16.1057C33.9633 16.1669 33.9837 16.2689 34.0041 16.4117C34.0449 16.5341 34.0653 16.6972 34.0653 16.9012C34.0653 17.0848 34.0755 17.2378 34.0959 17.3601C34.1367 17.4621 34.1673 17.5437 34.1877 17.6049C34.208 17.6661 34.2488 17.8191 34.31 18.0638C34.3712 18.3086 34.3916 18.6554 34.3712 19.1041C34.3508 19.5324 34.3508 19.8996 34.3712 20.2055C34.412 20.5115 34.4222 20.7665 34.4018 20.9704C34.4018 21.154 34.412 21.3172 34.4324 21.46C34.4732 21.5823 34.5038 21.7047 34.5242 21.8271C34.5446 21.9291 34.565 22.0311 34.5854 22.1331C34.6058 22.235 34.5956 22.388 34.5548 22.592L34.769 23.0509C34.8098 23.2345 34.82 23.4283 34.7996 23.6322C34.7996 23.8362 34.8913 23.9586 35.0749 23.9994C35.1973 23.9586 35.3299 23.9382 35.4727 23.9382C35.6358 23.9178 35.7786 23.8668 35.901 23.7852C36.0846 23.8056 36.207 23.8974 36.2681 24.0606C36.3497 24.2034 36.4313 24.3257 36.5129 24.4277C36.4313 24.6725 36.2987 24.8663 36.1152 25.009C35.9316 25.1518 35.7582 25.3048 35.595 25.468C35.3707 25.468 35.2075 25.4884 35.1055 25.5292C35.0239 25.5496 34.9117 25.4986 34.769 25.3762C34.6262 25.4374 34.463 25.4884 34.2794 25.5292C34.0959 25.57 33.9531 25.6414 33.8511 25.7433C33.7899 25.7229 33.7389 25.6924 33.6981 25.6516C33.6573 25.6108 33.5961 25.6006 33.5145 25.621C33.4126 25.7026 33.3004 25.7637 33.178 25.8045C33.0556 25.8453 32.9332 25.8963 32.8109 25.9575C32.6885 25.9983 32.5967 26.0391 32.5355 26.0799C32.4743 26.1207 32.3927 26.1615 32.2907 26.2023C32.2091 26.2227 32.1276 26.2533 32.046 26.2941C31.9848 26.3145 31.8624 26.3553 31.6788 26.4165C31.4952 26.4776 31.3321 26.549 31.1893 26.6306C31.0465 26.7122 30.9241 26.753 30.8221 26.753C30.7406 26.753 30.6488 26.7224 30.5468 26.6612C30.4856 26.5388 30.4856 26.4368 30.5468 26.3553C30.608 26.2533 30.608 26.1513 30.5468 26.0493C30.5876 26.0493 30.5978 25.9983 30.5774 25.8963C30.5774 25.7739 30.5978 25.6924 30.6386 25.6516C30.8425 25.5088 30.9751 25.3864 31.0363 25.2844C31.1179 25.162 31.2403 25.06 31.4035 24.9785C31.587 24.8765 31.7604 24.8255 31.9236 24.8255C32.0868 24.8051 32.2193 24.7031 32.3213 24.5195C32.2805 24.3767 32.2397 24.2646 32.1989 24.183C32.1581 24.1014 32.1174 23.9994 32.0766 23.877C32.0358 23.7546 32.0256 23.6424 32.046 23.5405C32.0868 23.4385 32.097 23.3161 32.0766 23.1733L31.9542 22.439C31.9542 21.9903 31.9236 21.6333 31.8624 21.3682C31.8216 21.0826 31.791 20.8276 31.7706 20.6033C31.7502 20.3789 31.7298 20.1953 31.7094 20.0526C31.689 19.8894 31.6788 19.7364 31.6788 19.5936L31.7094 19.1959C31.6482 18.7063 31.6176 18.4208 31.6176 18.3392L31.6482 18.0026C31.6482 17.9415 31.6278 17.8803 31.587 17.8191C31.5666 17.7375 31.5462 17.6559 31.5258 17.5743C31.5054 17.4723 31.5054 17.4213 31.5258 17.4213C31.5462 17.4009 31.5564 17.3193 31.5564 17.1766C31.4341 16.9522 31.3831 16.8094 31.4035 16.7482C31.4239 16.687 31.4341 16.636 31.4341 16.5952L31.2811 15.7998C31.2607 15.5346 31.1995 15.3204 31.0975 15.1572C31.0159 14.9737 30.9547 14.7901 30.9139 14.6065C30.7304 14.3414 30.4652 14.1578 30.1184 14.0558C29.7921 13.9334 29.5473 13.9946 29.3842 14.2394C29.221 14.2802 29.068 14.3312 28.9252 14.3924C28.8028 14.4332 28.6601 14.4739 28.4969 14.5147C28.4357 14.6167 28.3439 14.7085 28.2215 14.7901C28.1195 14.8717 28.0787 15.0043 28.0991 15.1878C28.0379 15.2082 27.987 15.2388 27.9462 15.2796C27.9258 15.3204 27.8748 15.3408 27.7932 15.3408C27.7524 15.504 27.6708 15.6366 27.5484 15.7386C27.4464 15.8406 27.3445 15.9527 27.2425 16.0751C27.1609 16.1771 27.0691 16.2689 26.9671 16.3505C26.8855 16.4321 26.7937 16.5239 26.6917 16.6258C26.7121 16.7482 26.6917 16.84 26.6306 16.9012C26.5694 16.942 26.5592 17.0338 26.6 17.1766C26.4776 17.2989 26.3858 17.4417 26.3246 17.6049C26.2634 17.7477 26.192 17.9007 26.1104 18.0638C25.9473 18.5126 25.8963 19.0021 25.9575 19.5324C26.039 20.0424 26.0798 20.4911 26.0798 20.8786L26.2634 23.1427C26.2634 23.3671 26.2736 23.6016 26.294 23.8464C26.3144 24.0912 26.3144 24.3869 26.294 24.7337C26.2532 26.2227 26.3654 27.1609 26.6306 27.5485C26.651 27.6505 26.6917 27.7015 26.7529 27.7015C26.8345 27.7015 26.9161 27.8035 26.9977 28.0074C27.0793 28.191 27.0385 28.4664 26.8753 28.8335C26.7529 28.8743 26.6204 28.9253 26.4776 28.9865C26.3552 29.0681 26.2328 29.1191 26.1104 29.1395C25.988 29.1599 25.8963 29.1497 25.8351 29.1089C25.7943 29.0681 25.7331 29.0477 25.6515 29.0477L24.6112 29.2924C24.4481 29.2924 24.2849 29.3332 24.1217 29.4148C23.9789 29.5168 23.877 29.5576 23.8158 29.5372C23.7546 29.5168 23.7138 29.5576 23.6934 29.6596C23.4282 29.6596 23.2854 29.6494 23.265 29.629C23.1223 29.731 23.0407 29.782 23.0203 29.782L22.5919 29.9961Z" fill="white"/>
<path d="M17.5736 6.95727L17.9713 7.11025C18.2365 7.11025 18.4915 7.07966 18.7362 7.01847C19.0014 6.93688 19.236 6.91648 19.4399 6.95727C19.6439 7.14085 19.6439 7.508 19.4399 8.05872C19.3379 8.09951 19.2462 8.13011 19.1646 8.15051C19.1034 8.15051 18.981 8.1709 18.7974 8.2117C18.7158 8.1709 18.6241 8.1811 18.5221 8.24229C18.4405 8.30348 18.2977 8.37487 18.0937 8.45646C17.9102 8.51765 17.7572 8.54825 17.6348 8.54825C17.5328 8.54825 17.4206 8.57884 17.2982 8.64004C17.1555 8.74202 17.0229 8.9256 16.9005 9.19076C16.7781 9.45592 16.6965 9.5885 16.6557 9.5885C16.4722 9.89446 16.309 10.0984 16.1662 10.2004C16.0438 10.282 15.9316 10.3738 15.8297 10.4758C15.8093 10.7409 15.6869 10.9449 15.4625 11.0877C15.2585 11.2305 15.126 11.414 15.0648 11.6384C14.8404 11.72 14.667 11.8424 14.5446 12.0056C14.4427 12.1483 14.3203 12.2707 14.1775 12.3727C14.0551 12.4747 13.9531 12.6073 13.8715 12.7704C13.7696 12.8112 13.6778 12.8724 13.5962 12.954C13.535 13.0356 13.4534 13.0968 13.3514 13.1376C13.2086 13.4028 13.0557 13.5557 12.8925 13.5965C12.7497 13.9229 12.5151 14.239 12.1888 14.545C11.8624 14.851 11.6177 15.1467 11.4545 15.4323C11.2913 15.4935 11.1383 15.6464 10.9956 15.8912C10.8528 16.1156 10.7406 16.289 10.659 16.4113L10.7814 16.7173C10.9038 16.8601 11.0262 16.9213 11.1485 16.9009C11.2709 16.8601 11.4035 16.9111 11.5463 17.0538L11.944 17.4516C12.1684 17.6148 12.301 17.7371 12.3418 17.8187C12.403 17.9003 12.4845 18.0023 12.5865 18.1247C12.6885 18.2471 12.7701 18.3593 12.8313 18.4612C12.9129 18.5632 12.9843 18.6754 13.0455 18.7978C13.1271 18.8998 13.2494 19.0222 13.4126 19.1649C13.5962 19.3077 13.7288 19.4403 13.8104 19.5627C13.8919 19.6851 13.9531 19.8278 13.9939 19.991C14.0551 20.1338 14.1163 20.2868 14.1775 20.45C14.2387 20.6131 14.2999 20.7559 14.3611 20.8783C14.4223 21.0007 14.4427 21.0721 14.4223 21.0925C14.4223 21.0925 14.4223 21.1333 14.4223 21.2149C14.4223 21.276 14.4631 21.3372 14.5446 21.3984C14.6262 21.4596 14.6874 21.6228 14.7282 21.888C14.7894 22.1531 14.871 22.3469 14.973 22.4693C15.1362 22.6732 15.2279 22.8772 15.2483 23.0812C15.2687 23.2648 15.3197 23.4279 15.4013 23.5707C15.4421 23.7747 15.4625 23.9889 15.4625 24.2132C15.4829 24.4376 15.5951 24.6212 15.7991 24.7639C15.9418 25.2535 16.0642 25.5798 16.1662 25.743C16.2886 25.9062 16.3498 26.0286 16.3498 26.1102C16.3498 26.1713 16.411 26.2733 16.5334 26.4161C16.6557 26.5385 16.7475 26.6405 16.8087 26.7221C16.8903 26.8852 16.9719 26.9974 17.0535 27.0586C17.1555 27.0994 17.2371 27.1606 17.2982 27.2422C17.3798 27.3238 17.441 27.385 17.4818 27.4258C17.6246 27.487 17.7572 27.5278 17.8796 27.5482C18.0223 27.5686 18.1447 27.6297 18.2467 27.7317C18.4303 27.6705 18.6037 27.6603 18.7668 27.7011C19.1136 27.8031 19.4093 27.6909 19.6541 27.3646C19.7765 27.2626 19.8785 27.1198 19.9601 26.9362C20.062 26.7323 20.0722 26.6099 19.9907 26.5691C20.1538 26.5079 20.215 26.4059 20.1742 26.2631C20.1334 26.1 20.1334 25.9572 20.1742 25.8348C20.0926 25.692 19.9805 25.59 19.8377 25.5288C19.7357 25.3657 19.6133 25.2637 19.4705 25.2229C19.3074 25.2433 19.1952 25.3045 19.134 25.4065C18.9708 25.6308 18.726 25.7736 18.3997 25.8348C17.9713 25.6512 17.7266 25.488 17.6654 25.3453C17.6246 25.2025 17.645 25.0393 17.7266 24.8557C17.8082 24.6722 17.8694 24.4988 17.9102 24.3356C18.0529 24.2948 18.1549 24.2234 18.2161 24.1214C18.2977 23.9991 18.3793 23.8971 18.4609 23.8155C18.6444 23.8155 18.777 23.7747 18.8586 23.6931C18.9606 23.5911 19.0932 23.5197 19.2564 23.4789C19.2972 23.5197 19.3481 23.5299 19.4093 23.5095C19.4909 23.4687 19.5521 23.4789 19.5929 23.5401C19.6337 23.5809 19.7459 23.5809 19.9295 23.5401C20.113 23.4993 20.266 23.5299 20.3884 23.6319C20.5108 23.7339 20.623 23.8359 20.7249 23.9379C20.8269 23.9787 20.8983 24.0399 20.9391 24.1214C20.9799 24.203 21.0513 24.2642 21.1533 24.305C21.1737 24.3662 21.1839 24.458 21.1839 24.5804C21.2043 24.7028 21.2655 24.8353 21.3675 24.9781C21.4694 25.1005 21.5102 25.1923 21.4898 25.2535C21.4694 25.2943 21.5 25.3657 21.5816 25.4676C21.6632 25.5492 21.6938 25.641 21.6734 25.743C21.653 25.845 21.653 25.9368 21.6734 26.0184C21.7958 26.4263 21.7448 26.7323 21.5204 26.9362C21.3165 27.1198 21.2349 27.283 21.2757 27.4258C21.1125 27.5482 20.9901 27.6807 20.9085 27.8235L20.7249 28.2213C20.6638 28.3436 20.5924 28.415 20.5108 28.4354C20.4496 28.4558 20.2864 28.5578 20.0212 28.7414C19.7765 28.925 19.0728 29.0167 17.9102 29.0167C17.441 29.0167 17.0943 28.8332 16.8699 28.466C16.6659 28.5068 16.5028 28.5068 16.3804 28.466C16.2784 28.4048 16.1254 28.3946 15.9214 28.4354C15.8807 28.313 15.7991 28.2417 15.6767 28.2213C15.5747 28.1805 15.4727 28.1295 15.3707 28.0683C15.2076 27.8847 15.0852 27.7929 15.0036 27.7929C14.9424 27.7929 14.8914 27.7827 14.8506 27.7623C14.6874 27.5584 14.565 27.3544 14.4835 27.1504C14.2795 26.9464 14.0551 26.7833 13.8104 26.6609C13.7084 26.5181 13.6064 26.3855 13.5044 26.2631C13.4024 26.1204 13.2698 26.0286 13.1067 25.9878C13.0251 25.7838 12.9231 25.539 12.8007 25.2535C12.6783 25.0903 12.6171 24.9781 12.6171 24.9169C12.6375 24.8353 12.6171 24.7537 12.5559 24.6722C12.5151 24.5906 12.4438 24.509 12.3418 24.4274C12.2602 24.3458 12.1888 24.2438 12.1276 24.1214C12.0868 23.9991 12.0562 23.9073 12.0358 23.8461C12.0358 23.7645 12.0052 23.6625 11.944 23.5401C11.8828 23.4177 11.8318 23.326 11.791 23.2648C11.7503 23.1832 11.7401 23.1016 11.7605 23.02C11.6177 22.918 11.5259 22.8364 11.4851 22.7752C11.4647 22.6936 11.4035 22.5509 11.3015 22.3469C11.2199 22.1429 11.1791 22.0103 11.1791 21.9491C11.1791 21.888 11.1485 21.837 11.0874 21.7962C11.0466 21.735 11.0058 21.684 10.965 21.6432C10.9446 21.582 10.9344 21.5208 10.9344 21.4596C10.9344 21.3984 10.914 21.3372 10.8732 21.276C10.8324 21.1945 10.7712 21.1231 10.6896 21.0619C10.6284 20.9803 10.608 20.8885 10.6284 20.7865C10.5876 20.7049 10.5366 20.6539 10.4754 20.6335C10.4142 20.5927 10.3633 20.5519 10.3225 20.5112C10.2817 20.348 10.2205 20.144 10.1389 19.8992C9.99611 19.7769 9.92472 19.6953 9.92472 19.6545C9.92472 19.6137 9.89413 19.5627 9.83293 19.5015C9.79214 19.4403 9.75135 19.3689 9.71055 19.2873C9.69016 19.2057 9.64936 19.1241 9.58817 19.0426C9.4046 19.0222 9.29241 18.9814 9.25162 18.9202C9.23122 18.8386 9.14963 18.7978 9.00686 18.7978C8.88447 18.7978 8.79269 18.8182 8.7315 18.859C8.6907 18.8794 8.62951 18.8692 8.54792 18.8284C8.50713 18.8692 8.43574 18.8896 8.33375 18.8896L7.87482 19.0426C7.77284 19.0426 7.74224 19.1241 7.78303 19.2873C7.66065 19.2669 7.55867 19.3179 7.47708 19.4403C7.39549 19.5423 7.29351 19.6341 7.17112 19.7157C7.04874 19.7769 6.96715 19.8788 6.92636 20.0216C6.88556 20.1644 6.82437 20.4194 6.74279 20.7865C6.6612 21.1333 6.71219 21.4902 6.89576 21.8574C6.85497 22.0817 6.82437 22.2653 6.80398 22.4081C6.78358 22.5305 6.81418 22.6732 6.89576 22.8364C6.81418 22.8976 6.77338 23.0812 6.77338 23.3871L6.83457 24.1214L6.77338 24.611L6.86517 25.4676L6.80398 25.896C6.82437 25.9776 6.84477 26.0592 6.86517 26.1408C6.90596 26.2223 6.93656 26.3141 6.95695 26.4161C6.99775 26.4977 6.99775 26.6405 6.95695 26.8445C6.91616 27.028 6.91616 27.2014 6.95695 27.3646C7.01815 27.5278 7.04874 27.6501 7.04874 27.7317V28.0377L7.07934 28.5272C7.12013 28.6292 7.18132 28.67 7.26291 28.6496C7.36489 28.6088 7.44648 28.6394 7.50767 28.7414C7.56887 28.7822 7.65045 28.8026 7.75244 28.8026C7.85442 28.8026 7.93601 28.823 7.9972 28.8638C7.9972 28.9658 8.038 29.0065 8.11958 28.9861C8.20117 28.9658 8.25217 29.0065 8.27256 29.1085C8.29296 29.2309 8.28276 29.3533 8.24197 29.4757C8.20117 29.6185 8.17058 29.7612 8.15018 29.904C7.987 30.0672 7.74224 30.2202 7.41589 30.363C7.13033 30.2406 6.79378 30.21 6.40623 30.2712C6.03909 30.3324 5.82492 30.363 5.76373 30.363C5.72293 30.363 5.64135 30.4037 5.51896 30.4853C5.41698 30.5669 5.2436 30.5975 4.99884 30.5771C4.77447 30.5567 4.5603 30.5669 4.35633 30.6077C4.17276 30.5873 4.06058 30.5975 4.01978 30.6383C3.97899 30.6791 3.9076 30.6995 3.80561 30.6995C3.72403 30.6587 3.57105 30.6281 3.34668 30.6077C3.12231 30.5873 2.96934 30.5465 2.88775 30.4853C2.84695 30.3222 2.82656 30.1998 2.82656 30.1182C2.84695 30.0366 2.86735 29.904 2.88775 29.7204C3.31609 29.4349 3.68323 29.2921 3.98919 29.2921C4.23395 29.0065 4.29514 28.619 4.17276 28.1295C4.13197 27.9867 4.11157 27.7521 4.11157 27.4258C4.11157 27.079 4.09117 26.7833 4.05038 26.5385C4.00958 26.2937 3.99939 26.151 4.01978 26.1102C4.04018 26.0694 4.05038 26.0286 4.05038 25.9878L3.928 25.5288C3.928 25.1209 3.8974 24.6722 3.83621 24.1826L3.8974 23.4483L3.80561 23.1118C3.76482 22.8466 3.75462 22.5815 3.77502 22.3163C3.79542 22.0307 3.80561 21.7044 3.80561 21.3372C3.80561 20.9497 3.72403 20.6743 3.56085 20.5112C3.64244 20.348 3.64244 20.1746 3.56085 19.991C3.49966 19.8075 3.45886 19.6341 3.43847 19.4709C3.45886 19.0834 3.44867 18.757 3.40787 18.4918C3.36708 18.2063 3.34668 17.8391 3.34668 17.3904V16.6867C3.38747 16.4827 3.37728 16.3297 3.31609 16.2278C3.27529 16.1258 3.27529 16.0442 3.31609 15.983C3.33648 15.779 3.32628 15.6362 3.28549 15.5547C3.16311 15.3099 3.12231 15.0957 3.16311 14.9121C3.2039 14.7082 3.1835 14.4022 3.10192 13.9943L3.16311 13.413V12.9846C3.16311 12.6583 3.11212 12.3013 3.01013 11.9138C2.90814 11.5058 2.88775 11.1897 2.94894 10.9653C3.03053 10.7409 3.02033 10.6288 2.91834 10.6288C2.83676 10.6288 2.81636 10.5676 2.85715 10.4452C2.89795 10.3228 2.89795 10.1596 2.85715 9.95565C2.81636 9.75168 2.78576 9.53751 2.76537 9.31314C2.72457 9.25195 2.71437 9.19076 2.73477 9.12957C2.77556 9.04798 2.77556 8.96639 2.73477 8.8848C2.71437 8.78282 2.67358 8.70123 2.61239 8.64004C2.5512 8.55845 2.49001 8.47686 2.42881 8.39527C2.32683 8.35448 2.20445 8.31368 2.06167 8.27289C1.93929 8.23209 1.8475 8.1913 1.78631 8.15051L1.38857 8.08931H1.11321L0.470701 8.1811C0.0627601 7.81395 -0.0800191 7.56919 0.0423631 7.4468C0.144348 7.30403 0.205539 7.18164 0.225936 7.07966C0.327921 7.03886 0.460502 6.99807 0.623678 6.95727C0.88884 6.95727 1.03162 6.92668 1.05202 6.86549C1.07241 6.8043 1.154 6.7737 1.29678 6.7737L1.75571 6.83489L2.33703 6.65132L2.73477 6.71251C3.08152 6.71251 3.30589 6.67171 3.40787 6.59013C3.53025 6.48814 3.65264 6.41675 3.77502 6.37596C3.8974 6.31477 4.07078 6.28417 4.29514 6.28417C4.51951 6.28417 4.71328 6.34536 4.87646 6.46774C5.01924 6.38616 5.13142 6.35556 5.21301 6.37596C5.31499 6.37596 5.45777 6.34536 5.64135 6.28417C5.82492 6.30457 5.9473 6.29437 6.00849 6.25357C6.06968 6.21278 6.16147 6.20258 6.28385 6.22298C6.40623 6.24338 6.51842 6.24338 6.6204 6.22298C6.74279 6.20258 6.85497 6.19238 6.95695 6.19238H7.56887C7.79323 6.43715 7.88502 6.61052 7.84423 6.71251C7.80343 6.81449 7.72184 6.92668 7.59946 7.04906C7.47708 7.15105 7.3547 7.22244 7.23231 7.26323C7.13033 7.30403 6.97735 7.37541 6.77338 7.4774C6.56941 7.57939 6.41643 7.69157 6.31445 7.81395C6.21246 7.93634 6.07988 8.00773 5.91671 8.02812C5.9371 8.1913 5.91671 8.41567 5.85552 8.70123C5.81472 8.96639 5.80452 9.17036 5.82492 9.31314C5.84532 9.43552 5.87591 9.6089 5.91671 9.83327C5.9575 10.0372 5.9779 10.18 5.9779 10.2616C5.99829 10.3432 5.99829 10.4452 5.9779 10.5676C5.9575 10.6695 5.9575 10.7715 5.9779 10.8735C5.99829 10.9551 6.02889 11.0367 6.06968 11.1183C6.11048 11.1795 6.13088 11.2815 6.13088 11.4242C6.15127 11.5466 6.16147 11.72 6.16147 11.9444C6.16147 12.1483 6.17167 12.3319 6.19207 12.4951L6.13088 12.8928L6.22266 13.413L6.10028 14.1473L6.31445 15.1263V15.7994C6.35524 16.085 6.44703 16.2991 6.58981 16.4419C6.75298 16.5643 6.88556 16.6255 6.98755 16.6255C7.15073 16.5031 7.24251 16.4521 7.26291 16.4725C7.3037 16.4725 7.37509 16.4419 7.47708 16.3807C7.57906 16.2991 7.69125 16.187 7.81363 16.0442C7.95641 15.881 8.11958 15.7586 8.30316 15.677C8.34395 15.5547 8.39494 15.4629 8.45614 15.4017C8.51733 15.3201 8.56832 15.1977 8.60911 15.0345C8.7111 15.0141 8.79269 14.9325 8.85388 14.7898C8.91507 14.6266 9.02725 14.494 9.19043 14.392C9.3536 14.29 9.48619 14.1982 9.58817 14.1167C9.71055 14.0351 9.81254 13.9535 9.89413 13.8719C9.99611 13.7903 10.1083 13.7291 10.2307 13.6883C10.3327 13.5047 10.455 13.3314 10.5978 13.1682C10.7406 13.005 10.863 12.8112 10.965 12.5869C11.067 12.5461 11.1485 12.5053 11.2097 12.4645C11.2913 12.4237 11.3729 12.3829 11.4545 12.3421C11.6993 11.8118 11.9542 11.4242 12.2194 11.1795C12.2194 11.0367 12.3418 10.8735 12.5865 10.6899C12.8517 10.486 12.9945 10.3228 13.0149 10.2004C13.0965 10.2208 13.1475 10.2106 13.1678 10.1698C13.2086 10.1086 13.2596 10.0678 13.3208 10.0474C13.4636 9.76188 13.6268 9.50691 13.8104 9.28254C14.0143 9.05818 14.1877 8.80321 14.3305 8.51765C14.3101 8.31368 14.1979 8.2015 13.9939 8.1811C13.8104 8.14031 13.6472 8.06892 13.5044 7.96693C13.3208 7.68137 13.229 7.4876 13.229 7.38561C13.229 7.28363 13.2596 7.20204 13.3208 7.14085C13.4024 7.05926 13.484 6.96747 13.5656 6.86549C13.9735 6.82469 14.2795 6.90628 14.4835 7.11025C14.7486 7.11025 14.9628 7.10005 15.126 7.07966C15.3095 7.05926 15.4829 7.06946 15.6461 7.11025C15.8093 7.13065 15.901 7.10005 15.9214 7.01847C15.9622 6.93688 16.0336 6.89608 16.1356 6.89608C16.1356 6.95727 16.2172 6.96747 16.3804 6.92668C16.564 6.88588 16.6659 6.85529 16.6863 6.83489C16.9719 6.93688 17.1555 6.97767 17.2371 6.95727C17.339 6.93688 17.4512 6.93688 17.5736 6.95727Z" fill="white"/>
</svg>
