<svg width="76" height="9" viewBox="0 0 76 9" fill="none" xmlns="http://www.w3.org/2000/svg">
<path d="M0.773428 0.0350804C1.19738 -0.0625105 1.74889 0.0579832 2.16389 0.217794C2.29255 0.26736 2.22315 0.478275 2.31429 0.522079C2.49666 0.60755 2.65334 0.506148 2.83287 0.607358C2.88823 0.641868 2.8129 0.976521 2.8713 1.00502C3.20067 1.15896 3.52325 1.0788 3.85419 1.15575C5.50719 1.53577 7.15617 1.68981 8.82561 1.87122C9.38917 1.93097 10.0632 2.24728 10.6253 2.12353C10.6924 2.10881 10.6576 1.81337 10.6707 1.7893C10.8776 1.4208 10.8008 2.01472 10.9318 2.09603C11.364 2.35952 11.802 2.43129 12.2496 2.39095C12.3408 2.382 12.4311 2.36764 12.5196 2.3487C12.7299 2.30301 12.5294 1.71396 12.7357 2.04619C12.75 2.06864 12.6911 2.38074 12.7485 2.41511C12.8782 2.49243 13.132 2.4408 13.2364 2.4674C13.4394 2.52026 13.4658 2.51756 13.6499 2.52429C13.9002 2.53618 14.2011 2.69699 14.4816 2.63089C14.5415 2.61585 14.4681 2.29361 14.5642 2.24066C14.6615 2.1878 14.8986 2.21912 14.9807 2.29621C15.0616 2.37332 15.0223 2.62491 15.0358 2.68297C15.1468 3.17295 15.4445 2.50217 15.4821 2.48611C16.1709 2.21329 16.7146 2.60796 17.3547 2.61831C17.82 2.62497 18.3429 2.5073 18.7956 2.53301C19.3242 2.56469 19.7921 2.74728 20.3145 2.72717C20.3692 2.72541 20.3122 2.34695 20.379 2.34403C21.0891 2.31344 21.8161 2.36847 22.5189 2.63693C22.5903 2.66421 22.4912 2.99363 22.5621 3.04068C23.0012 3.32153 23.6784 3.9891 23.9665 2.55218C24.2619 2.61441 24.6247 2.67993 24.8894 2.97612C25.055 3.16666 24.8831 3.52415 25.0941 3.37441C25.1418 3.34107 25.0872 3.02382 25.1582 2.99771C25.4571 2.88808 25.782 2.99753 26.0842 2.84046C26.1456 2.80777 26.1349 2.52428 26.1532 2.47365C26.3065 2.06373 26.5348 2.75139 26.5869 2.8021C26.9715 3.18019 27.2623 3.04072 27.6332 3.05767C27.7192 3.06176 27.6255 2.67926 27.7087 2.66954C28.1423 2.62427 28.5859 2.66656 28.998 2.84441C29.0902 2.8849 28.9976 3.20699 29.0413 3.24291C29.2341 3.39737 29.2912 2.78645 29.4774 2.92282C29.5167 2.95079 29.4881 3.22762 29.4948 3.25824C29.5981 3.73888 29.7125 3.06361 29.7422 3.04931C30.1214 2.85324 30.3382 3.56569 30.6948 3.47352C30.7376 3.46178 30.6497 3.10871 30.7694 3.09718C31.5703 3.01831 32.4157 3.13424 33.1988 3.4335C33.3213 3.47958 33.2269 3.7411 33.2339 3.77378C33.3486 4.28449 33.4468 3.60614 33.4878 3.58148C33.8123 3.40463 34.0934 3.98217 34.3254 3.177C35.6568 3.4903 37.0031 3.06843 38.315 3.82847C38.3316 3.83731 38.2929 4.17156 38.326 4.18775C38.7249 4.38625 38.6609 3.86357 38.9458 3.2337C39.0176 3.07555 39.2039 3.84977 39.2208 3.9066C39.2819 4.11602 39.1999 4.61264 39.2211 4.65344C39.3974 4.97409 39.4103 3.32496 39.6601 3.33098C39.6679 3.33393 39.6271 3.63647 39.6473 3.66718C39.7099 3.7636 39.7778 3.64474 39.839 3.75086C39.9801 3.9964 40.007 4.79861 40.2395 4.3383C40.2689 4.27854 40.2511 3.34241 40.4701 3.39243C40.5573 3.41315 40.9476 3.40754 41.0558 3.47109C41.1637 3.53455 41.0804 3.83383 41.0878 3.84708C41.3723 4.25344 41.256 4.41555 41.3882 5.0094C41.5205 5.60103 41.5174 4.19838 41.5821 4.04359C41.6469 3.88924 41.8557 4.22387 41.9062 4.3396C41.9566 4.45538 41.8846 4.64502 41.9305 4.71101C42.2317 5.14221 42.0864 4.01907 42.1951 3.79943C42.4507 3.27932 42.6106 4.32388 42.8297 4.43185C42.889 4.46102 42.8465 4.22294 42.9006 4.20228C43.115 4.12361 43.2337 4.45146 43.4844 4.16087C43.5253 4.11351 43.739 3.49411 43.8535 3.95628C43.8697 4.02291 43.8112 4.28047 43.9007 4.34105C44.0351 4.43197 44.2767 4.49544 44.4229 4.41294C44.5313 4.35191 44.4212 3.92167 44.5516 4.05805C44.6096 4.11895 44.4919 4.36547 44.6015 4.45904C44.7103 4.55257 44.9965 4.54975 45.1058 4.54426C45.2148 4.53857 45.1646 4.21314 45.174 4.19158C45.2307 4.06817 45.4445 3.91809 45.463 3.91901C46.4054 3.90661 47.2339 4.47712 48.1535 4.32396C48.2255 4.31241 48.188 3.96961 48.1991 3.96433C48.4487 3.82868 48.228 4.73046 48.3903 5.03941C48.3858 4.34593 48.4857 4.47448 48.6573 4.40363C48.7405 4.36894 48.7039 4.09936 48.7122 4.07213C48.8464 3.66842 48.9155 4.19721 48.9341 4.30552C49.0028 4.70396 49.1051 4.23876 49.1521 4.50512C49.1992 4.7695 49.0606 5.15508 49.2248 5.1551C49.2784 4.90853 49.1763 4.25681 49.3041 4.15559C49.7847 3.7726 50.6589 4.30861 51.0326 4.37323C51.4072 4.43781 51.5308 4.39593 51.7481 4.49251C52.141 4.66718 52.0104 4.18179 52.2652 3.96963C52.5209 3.75755 52.3622 4.93657 52.3898 5.192C52.4167 5.4473 52.4635 5.18688 52.5027 5.32801C52.5418 5.4691 52.4419 5.63898 52.5427 5.69472C52.6434 5.7504 52.9387 5.30726 52.9839 5.04256C53.0785 4.48173 52.9735 3.88651 53.2349 4.10292C53.25 4.11574 53.1898 4.42515 53.2479 4.4585C53.7098 4.71316 54.1994 4.74405 54.6657 4.97148C54.7298 5.00324 54.6601 5.34732 54.6973 5.36971C55.0847 5.60411 54.963 5.01603 55.2013 4.37516C55.1232 5.23598 55.2287 5.76772 55.5243 5.78272C55.7025 5.79207 55.6845 5.41436 55.8089 5.15276C55.8463 5.0739 55.9641 5.3368 55.993 5.16043C56.0882 4.58392 55.9906 3.93165 56.2892 4.20016C56.3023 4.21288 56.2486 4.5284 56.2945 4.54917C56.5916 4.68503 56.6483 4.08057 56.9775 4.01838C57.2347 3.96954 57.683 4.35474 57.9685 4.42479C57.9288 5.39419 58.2099 5.18165 58.3444 4.51701C58.5317 4.55094 58.7367 4.52028 58.916 4.6191C58.9777 4.65281 58.9266 4.93208 58.9334 4.96269C59.0382 5.44279 59.1433 4.79529 59.185 4.77124C59.6351 4.53895 59.9843 5.04495 60.4191 4.57819C60.4346 4.56137 60.483 3.88874 60.5776 4.38453C60.5836 4.41869 60.4339 4.72013 60.6306 4.75093C60.8274 4.78179 61.1875 5.15633 61.4745 4.8543C61.5439 4.78159 61.7327 4.24102 61.8528 4.67316C61.8687 4.73182 61.8419 4.92426 61.864 5.0327C61.9358 5.37827 62.0068 4.69924 62.0848 5.28119C62.1623 5.8631 62.3548 6.30385 62.6457 5.91509C62.6549 5.90382 62.7403 5.36671 62.8269 5.37847C62.9652 5.3977 63.1582 5.51744 63.3036 5.51936C63.3733 5.52008 63.3413 5.1834 63.3536 5.17772C63.8285 5.0075 64.1511 5.31874 64.6501 5.46752C64.7414 5.49545 65.0254 5.04879 65.1879 5.41672C65.3676 5.81957 65.1041 7.45651 65.567 7.08193C65.7537 6.93217 66.0638 4.85451 66.3478 5.94823C66.9908 5.70501 67.5564 6.28142 68.202 5.92411C68.2311 5.9083 68.3444 5.32959 68.411 5.3402C68.5098 5.35707 68.5535 5.63142 68.6238 5.65219C68.918 5.74612 69.2002 5.52428 69.4865 5.57219C69.5953 5.58979 69.5456 5.86963 69.6754 5.89067C69.8048 5.91143 69.9082 5.54448 70.0755 5.73058C70.2022 5.87241 70.3035 6.63523 70.4757 6.73074C70.5132 5.98395 70.6333 6.0043 70.8565 5.81598C70.8994 5.77942 70.8658 5.51757 70.8867 5.48687C70.9718 5.35615 71.0366 5.5747 71.1183 5.43195C71.1381 5.39768 71.1496 5.14259 71.1664 5.10017C71.31 4.72975 71.4971 5.31242 71.5292 5.41386C71.6523 5.79913 71.7311 5.47003 71.8316 5.62393C71.9318 5.77781 71.7647 5.95792 71.8853 6.0538C72.1351 6.25214 72.4698 6.22497 72.7285 6.24768C72.8322 6.25519 72.7758 5.91164 72.791 5.90481C73.0095 5.82755 73.2116 6.19906 73.36 5.52583C73.4343 7.28612 73.497 5.36124 73.7901 5.72558C73.8132 5.75502 73.8084 6.58574 73.71 6.70351C73.6117 6.82115 73.4816 6.55584 73.3444 6.74014C73.3119 6.78337 73.1038 7.55312 73.0779 7.59919C72.8755 7.95917 72.9017 6.71861 72.8947 6.65011C72.8138 5.91068 72.5648 6.73895 72.5062 6.79444C72.2374 7.04865 72.0236 6.86504 71.7996 7.04522C71.653 7.1616 71.6052 7.97293 71.4953 7.94345C71.1302 7.84593 71.0485 6.70796 70.6612 7.67571C70.5783 7.88211 70.6155 8.77255 70.3783 8.0638C70.3634 8.01912 70.1922 7.37264 70.0618 7.77176C70.0454 7.82209 70.0352 8.08073 70.0155 8.10169C69.8834 8.23705 69.8073 8.02756 69.6642 8.12057C69.5213 8.21359 69.3485 8.35392 69.1938 8.25979C69.1006 8.20347 68.9978 7.71666 68.9569 7.59685C68.8418 7.25179 68.6813 7.80346 68.6182 7.38871C68.5544 6.97187 68.7368 6.35004 68.5367 6.07433C68.502 6.74598 68.4564 7.43495 68.4167 8.11022C67.9553 8.06802 67.5157 7.83293 67.0474 7.84423C66.9896 7.84632 67.0343 8.20989 66.972 8.22144C66.709 8.26858 66.4917 8.00216 66.2181 8.09422C66.0063 8.16686 65.7631 8.54051 65.5419 8.62849C65.4387 7.8544 65.1061 8.10304 64.875 8.02384C64.7932 7.9964 64.8066 7.79123 64.7502 7.72199C64.5377 7.46572 64.6158 8.14922 64.5509 8.25384C64.2728 8.70033 64.3088 7.16139 64.0003 7.18779C63.9839 7.18866 63.7544 8.00105 63.7252 8.05108C63.539 8.37748 63.7072 7.76463 63.6008 7.69997C63.4066 7.58182 63.2762 7.38086 63.0351 7.61235C62.9647 7.68096 62.7835 8.18595 62.667 7.78581C62.6516 7.73341 62.6712 7.46276 62.6579 7.44637C62.4167 7.17252 62.3773 8.02377 62.2218 8.30682C62.0661 8.5898 61.864 7.99376 61.8247 7.82267C61.7216 7.38002 61.9228 7.63871 61.9309 7.59594C62.0255 7.08688 61.8589 7.169 61.7359 7.1212C61.7484 6.28558 61.5723 6.32933 61.6082 7.075C61.6124 7.15645 61.7122 7.08213 61.7359 7.1212C61.5965 7.93639 61.4014 8.03432 61.2183 7.26111C61.1326 6.89873 61.241 6.48376 60.9356 6.62595C60.7972 6.69011 60.8289 7.26693 60.7034 7.41934C60.4159 7.76705 60.0836 7.21814 59.7939 7.29243C59.6895 7.31943 59.7789 7.63772 59.7072 7.66702C59.517 7.74577 59.3605 7.50379 59.1688 7.61813C59.1514 7.62889 59.1813 7.9598 59.1228 7.96194C58.6798 7.98461 58.3038 7.76018 57.8459 7.73844C57.627 7.72816 57.2172 7.89595 56.9882 7.85154C56.5895 7.77643 56.1147 7.28069 55.7709 7.38565C55.5467 7.45269 55.5843 7.78386 55.4819 8.0052C55.2861 8.43434 54.9825 7.64377 54.9429 7.52161C54.9416 7.51757 55.1369 7.4463 55.0397 7.27372C54.9917 6.91926 54.9451 7.52016 54.9429 7.52161C54.9164 7.44266 54.5347 7.35511 54.4566 7.41561C54.4141 7.44867 54.427 7.76165 54.405 7.77298C53.8827 8.03545 53.3716 8.09821 52.8582 7.93551C52.8492 7.9289 52.8743 7.58011 52.853 7.56894C52.5556 7.4039 52.3487 7.82495 52.0924 8.07068C51.8361 8.31631 51.6427 8.22517 51.5153 7.62098C51.3263 7.69057 51.0677 7.4171 50.9193 7.25146C50.771 7.08582 50.7284 7.765 50.7145 7.77802C50.2753 8.1949 50.0408 7.79812 49.603 7.72403C49.3948 7.68763 48.9785 7.77362 48.7516 7.84115C48.5716 7.89564 48.4717 7.73315 48.3015 7.82998C48.2787 7.84291 48.2922 8.14631 48.285 8.15776C48.089 8.51436 48.2003 7.77701 48.166 7.64369C48.042 7.1589 47.9641 6.90034 47.7211 7.11939C47.665 7.16954 47.4747 8.23037 47.3739 8.28974C47.2429 8.36498 47.3028 7.98449 47.1654 8.07301C47.1537 8.08024 47.1491 8.31594 47.0664 8.30309C46.6811 8.24653 46.2732 8.09734 45.8651 8.10913C45.8099 8.10985 45.8697 8.48565 45.7898 8.49285C45.415 8.52631 45.008 8.50077 44.6527 8.31556C44.5652 8.2688 44.6283 8.00869 44.6112 7.93044C44.5064 7.45692 44.3197 8.13529 44.2918 8.14753C43.6225 8.45712 43.1239 7.8245 42.4448 8.10036C42.4076 8.11663 42.1064 8.84125 41.9986 8.20976C41.9914 8.16774 41.8846 7.52176 41.7607 7.95806C41.753 7.98536 41.8225 8.31831 41.6864 8.28087C41.5504 8.2435 41.3246 8.45847 41.1472 8.08995C41.091 7.97385 40.9681 7.32906 40.7782 7.83532C40.7657 7.87068 40.4632 9.01881 40.3879 8.21908C40.3757 8.08745 40.4144 7.24429 40.1937 7.67125C40.1516 7.75405 40.2191 7.94413 40.1108 8.05884C39.9454 8.23567 39.737 8.00407 39.5252 8.37457C39.4883 8.44018 39.3242 9.00884 39.2163 8.57114C39.1994 8.50259 39.2422 8.22188 39.1801 8.18872C38.8844 8.02972 38.5673 8.21002 38.2711 8.00741C38.1662 7.9362 38.2324 7.4823 38.1244 7.35744C38.0158 7.23261 37.7981 7.10964 37.6725 7.31464C37.549 7.51979 37.6596 8.24871 37.4812 8.30229C36.7019 8.53488 35.9799 8.09096 35.2059 8.00976C35.0927 7.99769 35.1803 8.25964 35.0133 8.26051C34.399 8.26484 33.3368 8.48312 32.8144 7.91887C32.3989 7.46697 32.9426 7.14304 32.6215 6.9556C32.4666 6.86615 32.2781 7.70591 32.2399 7.7316C31.8697 7.99298 31.6114 7.61311 31.2746 7.72015C31.2049 7.74237 31.265 8.08587 31.2057 8.10101C31.0032 8.15573 30.7963 7.99833 30.6052 8.02195C30.5194 8.03334 30.5293 8.29487 30.4513 8.27295C30.2633 8.22348 30.1059 8.11011 29.9218 7.8611C29.9053 7.83842 30.0272 7.51608 29.8858 7.50084C29.657 7.47711 29.3793 7.22936 29.1134 7.47303C29.0345 7.54635 29.0183 8.1432 28.8617 7.72735C28.8289 7.64049 28.8886 6.92468 28.6828 7.53981C28.6471 7.64199 28.3107 8.47043 28.1599 7.92847C28.1203 7.78583 28.024 7.19694 27.9282 7.2871C27.9151 7.30154 27.9592 7.62326 27.8808 7.65287C27.6045 7.75163 27.3201 7.71134 27.0405 7.8059C26.9658 7.83179 27.0691 8.16591 26.9581 8.19389C26.6553 8.2714 26.2742 8.1789 25.9745 8.06879C25.8646 8.02757 25.9468 7.75431 25.9394 7.72424C25.8199 7.23506 25.7301 7.89014 25.6865 7.92755C25.4157 8.15133 25.2208 7.83875 24.977 7.91544C24.9098 7.93577 24.9507 8.24984 24.9369 8.27749C24.7936 8.54747 24.9076 7.98726 24.8218 7.92351C24.5751 7.74292 24.2946 7.76243 24.0433 7.79742C23.9508 7.81073 24.0471 8.17586 23.9643 8.18361C23.4756 8.23642 22.9733 8.19174 22.4942 7.98217C22.4049 7.94207 22.467 7.66361 22.4495 7.5994C22.3288 7.15014 22.1286 7.75584 22.0843 7.81305C21.8828 8.07428 21.8117 7.82559 21.6388 7.86843C20.7691 8.08154 19.7266 7.89822 18.9225 7.78229C17.8745 7.63285 17.0628 7.35228 16.0631 7.40376C16.0003 7.4067 16.057 7.77973 16.0029 7.78704C15.2844 7.8641 14.6086 7.70701 13.882 7.80198C13.8237 7.80914 13.9014 8.16316 13.8077 8.1865C13.6135 8.23681 13.3846 8.21372 13.1854 8.0977C13.0896 8.0418 13.2245 7.74147 13.128 7.69139C12.9037 7.57409 12.6656 7.54491 12.4403 7.5976C12.3445 7.6208 12.4821 7.98386 12.3582 7.98591C12.2897 7.98765 12.2217 7.98957 12.1542 7.99138C11.3489 8.01109 10.5857 8.01566 9.79439 7.57306C9.73468 7.53996 9.6941 6.80616 9.56538 6.94456C9.55242 7.1478 9.54887 7.38707 9.54103 7.6044C8.28816 7.70024 7.06279 7.4253 5.80906 7.36482C5.75492 7.36233 5.84182 7.75223 5.73723 7.7494C5.1546 7.73381 4.56273 7.83144 3.97088 7.43542C3.91049 7.39665 3.95145 6.71399 3.77345 6.81435C3.74285 6.8327 3.47789 6.91939 3.40266 7.06648C3.39288 7.08869 3.43647 7.40838 3.34981 7.41623C2.85123 7.45632 2.33064 7.37483 1.83427 7.17178C1.75406 7.1384 1.84539 6.80023 1.78867 6.77352C1.38672 6.58661 0.939537 6.83751 0.559891 6.52325C0.304855 6.31171 0.408413 5.72616 0.282629 5.1464C0.260302 5.06451 0.105179 5.04955 0.101748 4.71335C0.0891106 3.86771 0.178094 2.94291 0.156414 2.04145C0.160635 1.84687 -0.110298 2.05497 0.0517067 1.58638C0.071701 1.55489 0.238713 1.40118 0.280217 1.24268C0.308504 1.13304 0.263924 0.790464 0.322253 0.650432C0.381624 0.510555 0.43712 0.798017 0.531775 0.633967C0.625362 0.467865 0.593233 0.0783269 0.773428 0.0350804ZM50.2451 6.51085C50.1116 6.1799 50.0534 7.37505 50.2175 7.09377C50.2255 7.07875 50.252 6.52709 50.2451 6.51085ZM67.5509 6.93126C67.3863 6.39664 67.2261 7.16684 67.3427 7.5793C67.4582 7.99128 67.6011 7.09334 67.5509 6.93126ZM69.5033 6.62402C69.301 6.19941 69.1979 7.89314 69.4463 7.55998C69.4607 7.54117 69.5151 6.64868 69.5033 6.62402ZM0.921963 4.99164C0.918863 4.9757 0.804293 4.9584 0.802713 4.97412C0.735915 5.35308 0.963737 5.3874 0.921963 4.99164ZM71.4427 6.28406C71.384 6.05192 71.1765 6.30844 71.2495 6.59709C71.3081 6.8293 71.5159 6.57283 71.4427 6.28406ZM42.8195 5.01578C42.8178 4.9979 42.7355 4.97956 42.7344 5.08035C42.731 5.40495 42.8487 5.31657 42.8195 5.01578ZM74.7145 6.40382C74.2328 6.31897 73.9999 4.90624 74.5205 5.08704C74.6148 5.11976 74.2952 5.5246 74.4113 5.65609C74.6238 5.89569 74.8099 5.02303 75.0168 5.50402C75.0541 5.59203 74.7417 6.41176 74.7135 6.40573C74.7138 6.40509 74.7141 6.40446 74.7145 6.40382ZM50.2069 5.07197C50.2045 5.05606 50.0897 5.0375 50.0865 5.05309C50.0123 5.4308 50.2435 5.46841 50.2069 5.07197ZM38.0016 4.1477C37.9971 4.11386 37.7307 4.07553 37.7206 4.10634C37.5655 4.7237 38.1037 4.80301 38.0016 4.1477ZM57.9722 4.45081C58.1101 4.07326 58.261 4.0335 58.3439 4.5165C58.2206 4.48672 58.0959 4.47863 57.9722 4.45081Z" fill="#CD4640"/>
</svg>
