<svg width="104" height="9" viewBox="0 0 104 9" fill="none" xmlns="http://www.w3.org/2000/svg">
<path d="M101.992 0.0350957C101.413 -0.0625215 100.655 0.0579743 100.083 0.217791C99.9064 0.267359 99.9994 0.478288 99.8738 0.522093C99.6225 0.607569 99.4087 0.506157 99.1611 0.607373C99.0848 0.641886 99.1846 0.976561 99.1041 1.00507C98.6504 1.15901 98.2084 1.07884 97.7532 1.15579C95.4799 1.53583 93.214 1.68988 90.9201 1.87129C90.1456 1.93104 89.2168 2.24737 88.4465 2.12361C88.3544 2.10889 88.4055 1.81344 88.3877 1.78936C88.1077 1.42083 88.2066 2.01479 88.026 2.09611C87.4288 2.35992 86.8261 2.43155 86.2114 2.39091C86.0869 2.38195 85.9638 2.36764 85.8431 2.34879C85.5549 2.3031 85.8367 1.71401 85.5498 2.04626C85.5298 2.06872 85.6073 2.38083 85.5282 2.41521C85.3493 2.49253 85.0014 2.4409 84.8578 2.46749C84.5786 2.52036 84.5421 2.51767 84.2894 2.52439C83.9456 2.53628 83.5309 2.6971 83.1465 2.63099C83.0644 2.61595 83.1688 2.29369 83.0374 2.24073C82.9042 2.18788 82.5786 2.21919 82.465 2.29629C82.353 2.3734 82.4042 2.62501 82.385 2.68307C82.2272 3.17309 81.826 2.50226 81.7746 2.4862C80.832 2.21336 80.0815 2.60805 79.2025 2.61839C78.5636 2.62506 77.8475 2.50736 77.2256 2.53307C76.4997 2.56475 75.8554 2.74735 75.1384 2.72724C75.0634 2.72547 75.1461 2.34698 75.0544 2.34407C74.0804 2.31346 73.0816 2.36849 72.1138 2.63697C72.0154 2.66425 72.1474 2.9937 72.0494 3.04076C71.4433 3.32162 70.5048 3.98925 70.1279 2.5522C69.7217 2.61443 69.2229 2.67995 68.8557 2.97617C68.6257 3.16673 68.8572 3.52425 68.5694 3.3745C68.5044 3.34115 68.5836 3.02387 68.4865 2.99776C68.0776 2.88812 67.6302 2.99757 67.2176 2.84048C67.1337 2.80779 67.1521 2.52427 67.1277 2.47364C66.9228 2.06367 66.6003 2.7514 66.5282 2.80211C65.9949 3.18024 65.5978 3.04075 65.0885 3.05769C64.9703 3.06179 65.1042 2.67925 64.9902 2.66953C64.3959 2.62424 63.7862 2.66654 63.2181 2.8444C63.0911 2.88489 63.2136 3.20702 63.1532 3.24294C62.8863 3.39742 62.8166 2.78643 62.5591 2.92281C62.5047 2.95078 62.54 3.22765 62.5305 3.25827C62.3818 3.73897 62.2345 3.06362 62.1938 3.04931C61.6762 2.85322 61.3682 3.56575 60.8801 3.47356C60.8216 3.46182 60.9473 3.10872 60.7832 3.09717C59.6853 3.01829 58.523 3.13423 57.4437 3.43352C57.275 3.47959 57.4005 3.74115 57.3904 3.77384C57.2253 4.28461 57.1007 3.60617 57.0448 3.5815C56.6022 3.40463 56.2072 3.98225 55.9013 3.17696C54.069 3.49029 52.2282 3.06834 50.4149 3.82848C50.392 3.83732 50.4396 4.17163 50.3939 4.18782C49.843 4.38635 49.9395 3.86359 49.559 3.23362C49.4631 3.07543 49.1944 3.84977 49.1704 3.90662C49.0829 4.11606 49.1872 4.61277 49.1573 4.65358C48.9099 4.97427 48.9201 3.32488 48.577 3.3309C48.5664 3.33385 48.6172 3.63643 48.589 3.66715C48.5014 3.76358 48.4102 3.64471 48.3245 3.75084C48.1267 3.99642 48.0759 4.79876 47.7646 4.33837C47.7253 4.27861 47.7657 3.34232 47.4642 3.39235C47.3443 3.41307 46.8087 3.40745 46.6591 3.47101C46.51 3.53448 46.6191 3.83381 46.6086 3.84707C46.2111 4.25349 46.368 4.41563 46.1762 5.00958C45.9842 5.60131 46.013 4.19842 45.9268 4.0436C45.8405 3.88922 45.5481 4.22391 45.4768 4.33966C45.4055 4.45546 45.501 4.64513 45.4369 4.71113C45.0156 5.14241 45.235 4.01908 45.0896 3.7994C44.748 3.27919 44.5101 4.32393 44.2074 4.43192C44.1255 4.46109 44.188 4.22297 44.1141 4.20231C43.8213 4.12362 43.6524 4.45153 43.3136 4.16088C43.2582 4.11352 42.9761 3.494 42.8107 3.95625C42.7873 4.02289 42.8629 4.28051 42.739 4.34109C42.5528 4.43202 42.2199 4.49551 42.0207 4.41299C41.8731 4.35195 42.0321 3.92163 41.8505 4.05803C41.7698 4.11894 41.9268 4.36551 41.7747 4.4591C41.6236 4.55264 41.2309 4.54982 41.0809 4.54433C40.9313 4.53864 41.0064 4.21314 40.9938 4.19158C40.9182 4.06815 40.6276 3.91803 40.6022 3.91895C39.3091 3.90654 38.1609 4.47716 36.9017 4.32395C36.8031 4.31239 36.8611 3.96953 36.846 3.96424C36.5061 3.82856 36.7915 4.73054 36.5628 5.03955C36.5825 4.34592 36.4426 4.4745 36.2086 4.40363C36.095 4.36894 36.1505 4.0993 36.1396 4.07206C35.9633 3.66826 35.8583 4.19717 35.8306 4.3055C35.7284 4.70402 35.5972 4.23873 35.5274 4.50514C35.4576 4.76958 35.6403 5.15524 35.4149 5.15526C35.3462 4.90864 35.4991 4.25677 35.3256 4.15553C34.6736 3.77245 33.4632 4.30856 32.9489 4.3732C32.4334 4.43779 32.2647 4.3959 31.9645 4.4925C31.4216 4.6672 31.6107 4.1817 31.2655 3.96949C30.9189 3.75735 31.1124 4.93666 31.0693 5.19215C31.027 5.44751 30.9682 5.18703 30.9115 5.32819C30.8549 5.46932 30.9885 5.63923 30.849 5.69498C30.7095 5.75068 30.3133 5.30743 30.2569 5.04266C30.1386 4.4817 30.2951 3.88634 29.9318 4.10279C29.9109 4.11562 29.987 4.42511 29.9066 4.45846C29.2673 4.71318 28.5946 4.74407 27.9497 4.97155C27.8611 5.00332 27.9493 5.34749 27.8978 5.36989C27.361 5.60435 27.5407 5.01612 27.2273 4.37508C27.3161 5.23612 27.1599 5.768 26.7536 5.78301C26.5087 5.79235 26.5416 5.41455 26.3765 5.15288C26.3269 5.07399 26.1595 5.33696 26.1237 5.16054C26.0055 4.58388 26.1536 3.93144 25.738 4.20001C25.7198 4.21274 25.7866 4.52834 25.7231 4.54912C25.3124 4.68501 25.2479 4.08039 24.7974 4.01817C24.4455 3.96931 23.8219 4.35461 23.4284 4.42468C23.4613 5.39435 23.0801 5.18175 22.9104 4.51692C22.6526 4.55086 22.3719 4.52018 22.1236 4.61903C22.0382 4.65275 22.1021 4.9321 22.0919 4.96272C21.9373 5.44296 21.8077 4.79527 21.751 4.77121C21.1386 4.53885 20.6478 5.04499 20.0617 4.57808C20.0408 4.56126 19.99 3.88843 19.8487 4.38437C19.8396 4.41854 20.0382 4.72007 19.7674 4.75088C19.4967 4.78174 18.9936 5.15639 18.6068 4.85426C18.5132 4.78154 18.2669 4.24079 18.0919 4.67306C18.0687 4.73175 18.101 4.92424 18.068 5.03271C17.9613 5.3784 17.8799 4.69915 17.7591 5.28128C17.639 5.86337 17.3642 6.30426 16.9741 5.91538C16.9617 5.9041 16.8573 5.36683 16.7381 5.37859C16.5479 5.39782 16.28 5.5176 16.0804 5.51951C15.9849 5.52024 16.0369 5.18345 16.0201 5.17777C15.3725 5.00748 14.9221 5.31882 14.2336 5.46765C14.1076 5.49559 13.7287 5.04877 13.4966 5.41683C13.24 5.81982 13.5613 7.45732 12.9349 7.08261C12.6822 6.93281 12.3085 4.85441 11.8913 5.94852C11.0148 5.7052 10.2237 6.28182 9.34663 5.92438C9.3071 5.90856 9.16655 5.32964 9.07485 5.34025C8.93875 5.35712 8.87172 5.63157 8.77474 5.65236C8.36845 5.74631 7.98701 5.52439 7.5927 5.57231C7.44298 5.58991 7.50381 5.86987 7.32516 5.89091C7.14697 5.91168 7.01475 5.54458 6.78023 5.73076C6.60252 5.87265 6.44331 6.63576 6.20439 6.73132C6.17278 5.98422 6.00734 6.00458 5.70603 5.81618C5.64809 5.77962 5.70116 5.51766 5.67335 5.48694C5.55999 5.35617 5.46526 5.57481 5.35696 5.432C5.33063 5.39771 5.32172 5.14252 5.29976 5.10008C5.11268 4.72952 4.84022 5.31242 4.79346 5.4139C4.61417 5.79932 4.51483 5.47009 4.37288 5.62405C4.23114 5.77799 4.45558 5.95818 4.28746 6.0541C3.93927 6.25252 3.48062 6.22533 3.12489 6.24806C2.98229 6.25557 3.06913 5.91187 3.04848 5.90504C2.75065 5.82774 2.46304 6.19941 2.27796 5.52589C2.12747 7.28693 2.09444 5.36123 1.68209 5.72572C1.64964 5.75517 1.6332 6.58626 1.76499 6.70407C1.89676 6.82177 2.08264 6.55635 2.26588 6.74072C2.3093 6.78397 2.57388 7.55405 2.6081 7.60013C2.8763 7.96027 2.87421 6.71918 2.88573 6.65065C3.01704 5.91091 3.33623 6.73953 3.41514 6.79504C3.77731 7.04936 4.07572 6.86567 4.37841 7.04593C4.57652 7.16235 4.62025 7.97402 4.77196 7.94452C5.27608 7.84696 5.41862 6.70852 5.92451 7.67666C6.03286 7.88314 5.95819 8.77394 6.30275 8.0649C6.32439 8.02021 6.57658 7.37347 6.7452 7.77275C6.76638 7.82309 6.77347 8.08184 6.80004 8.1028C6.97781 8.23822 7.08798 8.02863 7.28201 8.12168C7.47579 8.21474 7.70943 8.35512 7.92435 8.26095C8.05387 8.20461 8.20776 7.71761 8.267 7.59775C8.43405 7.25256 8.64005 7.80443 8.7375 7.38953C8.83584 6.97253 8.60155 6.35047 8.88336 6.07466C8.91369 6.74655 8.9585 7.43579 8.99545 8.11131C9.63036 8.06909 10.2401 7.83391 10.8829 7.84521C10.9622 7.84729 10.8916 8.211 10.9769 8.22255C11.3369 8.2697 11.642 8.00318 12.0154 8.09527C12.3045 8.16794 12.6293 8.54171 12.9309 8.62972C13.092 7.85536 13.5424 8.10408 13.8619 8.02485C13.975 7.99739 13.9616 7.79216 14.0407 7.72288C14.3389 7.46653 14.2148 8.15026 14.3013 8.25492C14.6724 8.70155 14.6606 7.16209 15.0836 7.1885C15.106 7.18937 15.4015 8.00203 15.4404 8.05208C15.6882 8.37858 15.4721 7.76553 15.6198 7.70085C15.8893 7.58266 16.0732 7.38163 16.3988 7.61319C16.4938 7.68182 16.7306 8.18698 16.9002 7.7867C16.9225 7.73428 16.9021 7.46355 16.9208 7.44716C17.2586 7.17321 17.2924 8.02474 17.4992 8.30788C17.7064 8.59094 17.9981 7.99471 18.0562 7.82356C18.2081 7.38077 17.9258 7.63955 17.9157 7.59677C17.7978 7.08755 18.0246 7.16969 18.1946 7.12187C18.1972 6.28599 18.4379 6.32975 18.371 7.07566C18.3633 7.15714 18.228 7.0828 18.1946 7.12187C18.3668 7.93732 18.6325 8.03528 18.9021 7.26183C19.0283 6.89934 18.8892 6.48424 19.3051 6.62646C19.4937 6.69065 19.4367 7.26764 19.6055 7.4201C19.9922 7.76792 20.4615 7.21883 20.8575 7.29314C21.0002 7.32015 20.8702 7.63854 20.9679 7.66785C21.2273 7.74661 21.4478 7.50456 21.7085 7.61893C21.7321 7.6297 21.6836 7.9607 21.7638 7.96284C22.3717 7.98551 22.8932 7.76101 23.5227 7.73926C23.8235 7.72898 24.3827 7.89681 24.6982 7.85239C25.2475 7.77725 25.9105 7.28138 26.3803 7.38636C26.6867 7.45342 26.6279 7.78467 26.7637 8.00607C27.0234 8.43531 27.4576 7.64454 27.5146 7.52235C27.5164 7.5183 27.2498 7.44702 27.3869 7.27439C27.4605 6.91984 27.5116 7.52089 27.5146 7.52235C27.5527 7.44337 28.0787 7.3558 28.1847 7.41631C28.2423 7.44938 28.2181 7.76244 28.248 7.77378C28.9598 8.03631 29.6605 8.09908 30.3692 7.93632C30.3817 7.92972 30.3545 7.58084 30.3839 7.56966C30.7959 7.40459 31.0713 7.82573 31.4183 8.07152C31.7653 8.3172 32.0329 8.22604 32.2202 7.62171C32.4784 7.69131 32.8392 7.41777 33.0462 7.25209C33.2533 7.08641 33.298 7.76576 33.3169 7.77878C33.912 8.19574 34.2419 7.79887 34.8447 7.72476C35.1314 7.68835 35.7016 7.77435 36.012 7.8419C36.258 7.8964 36.3986 7.73386 36.6304 7.83072C36.6616 7.84365 36.637 8.14712 36.6467 8.15857C36.909 8.51524 36.7705 7.77774 36.8202 7.64439C36.9999 7.15949 37.112 6.90088 37.4414 7.11997C37.5174 7.17013 37.7584 8.23118 37.8958 8.29057C38.0743 8.36582 37.9994 7.98525 38.1863 8.07379C38.2023 8.08102 38.2042 8.31676 38.318 8.30392C38.8483 8.24733 39.4116 8.09811 39.9719 8.10989C40.0477 8.11061 39.9585 8.48649 40.0681 8.49369C40.5825 8.52715 41.142 8.5016 41.6337 8.31635C41.7547 8.26958 41.6728 8.00942 41.6977 7.93116C41.8504 7.45755 42.0944 8.13605 42.1325 8.14829C43.0465 8.45792 43.7428 7.82518 44.6707 8.10109C44.7214 8.11736 45.1225 8.8421 45.2818 8.21049C45.2924 8.16847 45.4506 7.52237 45.6131 7.95875C45.6231 7.98606 45.5219 8.31907 45.7094 8.28162C45.8969 8.24424 46.2035 8.45924 46.4535 8.09065C46.5327 7.97453 46.7127 7.32964 46.9648 7.83598C46.9814 7.87134 47.3771 9.01966 47.4944 8.2198C47.5133 8.08814 47.4747 7.24485 47.7705 7.67188C47.8269 7.75469 47.731 7.9448 47.8778 8.05953C48.1019 8.23639 48.3923 8.00475 48.677 8.3753C48.7265 8.44092 48.9423 9.00968 49.098 8.5719C49.1224 8.50334 49.0683 8.22259 49.1543 8.18942C49.5631 8.03039 49.9957 8.21071 50.406 8.00808C50.5513 7.93685 50.4679 7.48288 50.6182 7.358C50.7694 7.23315 51.0707 7.11016 51.2398 7.31519C51.406 7.52037 51.2422 8.2494 51.4863 8.30299C52.5532 8.5356 53.5521 8.09161 54.6168 8.01039C54.7726 7.99832 54.6481 8.26031 54.8776 8.26117C55.7213 8.2655 57.1776 8.48379 57.9036 7.91946C58.4812 7.46751 57.7394 7.14354 58.1832 6.95607C58.3972 6.86661 58.6436 7.70648 58.6957 7.73217C59.2003 7.99357 59.561 7.61365 60.0219 7.72071C60.1174 7.74293 60.0298 8.08647 60.111 8.10161C60.3884 8.15633 60.675 7.99891 60.9372 8.02254C61.0548 8.03393 61.0374 8.29549 61.1449 8.27356C61.4038 8.22409 61.622 8.1107 61.8784 7.86166C61.9014 7.83898 61.7385 7.5166 61.9329 7.50136C62.2476 7.47762 62.6325 7.22985 62.9944 7.47354C63.1017 7.54687 63.1156 8.14379 63.3365 7.72788C63.3828 7.64102 63.3108 6.92513 63.5849 7.54032C63.6325 7.64252 64.0829 8.47105 64.2978 7.92902C64.3543 7.78637 64.4946 7.19742 64.6251 7.28759C64.6428 7.30202 64.5778 7.62378 64.6851 7.65339C65.0632 7.75216 65.4545 7.71187 65.8373 7.80643C65.9395 7.83232 65.793 8.16648 65.9451 8.19447C66.36 8.27198 66.8851 8.17946 67.2982 8.06934C67.4498 8.02812 67.3404 7.75483 67.3511 7.72475C67.5217 7.23552 67.6364 7.89067 67.6957 7.92808C68.0648 8.15188 68.3366 7.83927 68.6705 7.91596C68.7626 7.9363 68.7022 8.2504 68.7209 8.27805C68.9141 8.54806 68.7649 7.9878 68.8836 7.92404C69.2251 7.74343 69.61 7.76294 69.9549 7.79793C70.0816 7.81125 69.9447 8.17641 70.0584 8.18416C70.7289 8.23697 71.4199 8.19228 72.0805 7.98269C72.2037 7.94259 72.1219 7.6641 72.1467 7.59988C72.3182 7.15058 72.5855 7.75633 72.6457 7.81355C72.9193 8.0748 73.02 7.82609 73.2569 7.86894C74.4491 8.08205 75.8835 7.89871 76.9894 7.78277C78.4307 7.63331 79.549 7.35271 80.9213 7.4042C81.0074 7.40714 80.9254 7.7802 80.9996 7.78751C81.9857 7.86457 82.9156 7.70747 83.9124 7.80244C83.9923 7.8096 83.8817 8.16365 84.01 8.18699C84.2763 8.23731 84.5907 8.21422 84.8657 8.09819C84.9978 8.04228 84.816 7.74193 84.949 7.69184C85.2584 7.57454 85.5856 7.54535 85.8943 7.59806C86.0256 7.62125 85.8326 7.98434 86.0027 7.98639C86.0961 7.98812 86.1888 7.99003 86.2809 7.99182C87.387 8.01157 88.4354 8.01641 89.5275 7.57351C89.6098 7.54042 89.6736 6.80657 89.8488 6.94498C89.8644 7.14823 89.8666 7.38751 89.875 7.60486C91.5942 7.70071 93.2796 7.42575 95.0018 7.36527C95.0762 7.36278 94.9526 7.75271 95.0963 7.74988C95.8963 7.73429 96.7081 7.83193 97.5251 7.43588C97.6084 7.39711 97.5596 6.7144 97.8029 6.81477C97.8447 6.83312 98.2077 6.91982 98.3093 7.06691C98.3225 7.08913 98.2592 7.40884 98.3781 7.41669C99.0624 7.45678 99.7782 7.37529 100.462 7.17222C100.573 7.13884 100.451 6.80065 100.529 6.77393C101.083 6.58701 101.695 6.83793 102.22 6.52363C102.574 6.31207 102.437 5.72649 102.616 5.1467C102.647 5.0648 102.862 5.04983 102.87 4.71362C102.892 3.86796 102.778 2.94312 102.814 2.04163C102.816 1.84704 103.15 2.05526 102.951 1.58661C102.931 1.55509 102.71 1.40131 102.654 1.2428C102.616 1.13316 102.68 0.790571 102.602 0.650522C102.523 0.510627 102.445 0.798096 102.317 0.63403C102.191 0.467913 102.238 0.0783541 101.992 0.0350957ZM33.9871 6.51131C34.1771 6.18029 34.2331 7.37571 34.0133 7.09436C34.0026 7.07934 33.9773 6.52756 33.9871 6.51131ZM10.2148 6.9319C10.4543 6.39709 10.6547 7.16757 10.4841 7.58017C10.3149 7.99231 10.1416 7.09404 10.2148 6.9319ZM7.54218 6.62455C7.83096 6.19978 7.92834 7.89415 7.59591 7.56087C7.57658 7.54205 7.52529 6.64922 7.54218 6.62455ZM101.738 4.99194C101.743 4.976 101.9 4.9587 101.902 4.97442C101.99 5.3534 101.677 5.38772 101.738 4.99194ZM4.88877 6.28445C4.97563 6.05221 5.25352 6.30884 5.1457 6.59761C5.05894 6.82991 4.78064 6.57333 4.88877 6.28445ZM44.2109 5.01595C44.2137 4.99807 44.327 4.97973 44.3267 5.08053C44.3255 5.4052 44.1655 5.31679 44.2109 5.01595ZM0.394569 6.40425C1.05809 6.31937 1.41695 4.90602 0.697609 5.08689C0.567299 5.11963 0.994484 5.52465 0.831467 5.65619C0.533226 5.89589 0.302284 5.02285 0.00486755 5.50405C-0.0489044 5.5921 0.35688 6.4122 0.395813 6.40616C0.395401 6.40553 0.394974 6.40489 0.394569 6.40425ZM34.0683 5.0721C34.0719 5.0562 34.2299 5.03763 34.234 5.05323C34.3282 5.43102 34.0101 5.46863 34.0683 5.0721ZM50.8398 4.14776C50.8465 4.11392 51.213 4.07558 51.2264 4.1064C51.4292 4.72385 50.6888 4.80318 50.8398 4.14776ZM23.4228 4.45071C23.242 4.07305 23.0358 4.03327 22.9112 4.51641C23.081 4.48662 23.2524 4.47853 23.4228 4.45071Z" fill="#CD4640"/>
</svg>
